<?xml version="1.0" standalone="no"?>
<!DOCTYPE svg PUBLIC "-//W3C//DTD SVG 1.1//EN" "http://www.w3.org/Graphics/SVG/1.1/DTD/svg11.dtd" >
<svg xmlns="http://www.w3.org/2000/svg">
<metadata>
This is a custom SVG webfont generated by Font Squirrel.
Copyright   : Generated by Fontographer 41J
</metadata>
<defs>
<font id="CookiesRegular" horiz-adv-x="616" >
<font-face units-per-em="2048" ascent="1638" descent="-410" />
<missing-glyph horiz-adv-x="500" />
<glyph unicode=" " />
<glyph unicode="!" horiz-adv-x="585" d="M37 1272q0 98 18 123q45 98 197 98q66 0 119 -25q68 -33 73 -90q12 -23 13 -94q0 -125 -35 -369q-39 -270 -79 -351t-101 -81q-59 0 -99.5 90.5t-74.5 341.5q-31 224 -31 357zM45 205q12 180 213 178q76 -2 113 -35t55 -106q6 -27 6 -52q0 -88 -58.5 -137t-148.5 -49 q-80 0 -133 60.5t-47 140.5z" />
<glyph unicode="&#x22;" horiz-adv-x="1177" d="M53 1307q0 70 35 136t96 89q49 18 105 18q100 0 168.5 -66.5t68.5 -164.5q2 -154 -137 -324q-123 -150 -190 -149q-18 0 -31.5 21.5t-13.5 41.5q0 29 24.5 85.5t24.5 72.5q0 6 -2 12q-148 66 -148 228zM571 1307q0 74 37 137q61 106 199 106q98 0 167.5 -66.5 t72.5 -164.5q2 -154 -138 -324q-123 -150 -192 -149q-8 0 -12 4q-31 23 -31 59q0 29 24.5 85.5t24.5 72.5q0 6 -4 12q-148 66 -148 228z" />
<glyph unicode="#" horiz-adv-x="1230" d="M8 985q4 121 168 121q37 0 88 -4q-12 84 -12 117q0 131 127 143q131 14 131 -150q0 -23 -4 -51q-8 -57 51 -57q49 0 55 49q-6 49 -6 84q0 131 111 127q129 -4 129 -139q0 -12 -8 -123q39 2 67 2q174 0 174 -119q0 -115 -127 -115q-39 0 -86 13q-55 0 -55 -56 q0 -51 49 -59q53 6 88 6q147 0 148 -106q0 -125 -150 -125q-45 0 -102 12q10 -70 10 -113q0 -150 -135 -145q-115 4 -115 149q0 29 6 60q-8 49 -61 49q-45 0 -55 -57q4 -27 4 -52q0 -143 -105 -143q-143 -2 -143 199q0 25 2 53q-47 -8 -84 -8q-143 0 -154 110q8 131 154 131 q35 0 86 -6q39 4 39 56q0 49 -39 53q-53 -18 -102 -19q-146 0 -144 113zM487 823q4 -43 48 -45q45 -4 45 45q0 47 -45 47q-52 0 -48 -47z" />
<glyph unicode="$" horiz-adv-x="1212" d="M10 324q74 -96 183 -134q84 -29 229 -30q2 -82 12 -103q27 -55 139 -55q111 0 136 61q4 10 10 113q162 20 262 88q129 84 123 230q-6 141 -88 215q-68 61 -217 96q-51 12 -62 18q-25 14 -24 54q0 39 4 71v60q4 20 18 20q23 0 101 -43q18 -10 41 -10q57 0 116.5 49 t59.5 106q0 27 -17 46q-78 88 -143 127q-88 51 -209 53q4 8 4 39q0 121 -119 121t-137 -76l-12 -107q-156 -37 -266 -139q-125 -117 -125 -264q0 -123 100 -211q90 -80 219 -101q59 0 68 -24q-2 -12 -2 -84q6 -39 -27 -39q-27 0 -127 45q-106 47 -143 53q-72 -25 -94 -100 q-13 -41 -13 -145zM367 940q0 16 12 41t29 25q6 0 6 -2q0 -47 -6 -140q-41 4 -41 76zM748 494q-2 41 0 43q2 16 24 16q33 -4 33 -51q0 -39 -33 -39q-20 0 -22 2t-2 29z" />
<glyph unicode="%" horiz-adv-x="1210" d="M14 1171q0 168 86 265q61 49 168 49q104 0 172 -49q80 -109 80 -279q0 -172 -69 -274q-43 -63 -170 -64q-135 0 -191 62q-76 83 -76 290zM96 182q0 20 8 39q88 197 314 610q213 395 307 613q18 45 84 45q74 0 135.5 -50t61.5 -122q0 -16 -5 -35q-223 -426 -624 -1229 q-37 -39 -90 -39q-66 0 -128.5 52.5t-62.5 115.5zM205 1167q0 -31 16.5 -59.5t44.5 -28.5q63 0 64 88q0 33 -16.5 61.5t-47.5 28.5q-29 0 -45 -29.5t-16 -60.5zM588 358q0 168 86 265q61 49 168 49q104 0 172 -49q80 -109 80 -279q0 -172 -70 -274q-43 -63 -170 -64 q-135 0 -190 62q-76 83 -76 290zM778 354q0 -31 16.5 -59.5t45.5 -28.5q63 0 63 88q0 33 -16.5 61.5t-46.5 28.5q-29 0 -45.5 -29.5t-16.5 -60.5z" />
<glyph unicode="&#x26;" horiz-adv-x="1214" d="M-6 430q0 188 182 365q-92 170 -92 342q0 139 105.5 247.5t242.5 108.5q164 0 266 -78q115 -86 115 -244q0 -147 -45 -243.5t-158 -188.5q49 -84 129 -139q25 84 25 131q0 68 43 111t111 43t110.5 -43t42.5 -111q0 -160 -92 -352q27 -27 92 -88q41 -37 41 -88 q0 -59 -50 -121t-108 -62q-29 0 -46 20.5t-105 96.5q-156 -135 -365 -135q-166 0 -305 131t-139 297zM330 465q-4 -47 26 -78q45 -45 86 -45q27 0 80 27l-78 69q-29 27 -73 90q-39 -38 -41 -63zM393 1126q0 -43 29 -104q16 8 43 41q20 45 20 102q-18 14 -45 15q-10 0 -20 -2 q-27 -25 -27 -52z" />
<glyph unicode="'" horiz-adv-x="784" d="M178 1307q0 74 37 137q59 106 199 106q98 0 167.5 -66.5t71.5 -164.5q2 -154 -137 -324q-123 -150 -192 -149q-8 0 -13 4q-33 23 -32 59q0 29 24.5 85.5t24.5 72.5q0 6 -2 12q-148 66 -148 228z" />
<glyph unicode="(" horiz-adv-x="1089" d="M102 750q-6 -410 187 -592q94 -90 309 -148q53 -14 111 -14q102 0 186 41q102 53 102 145q0 41 -22 82q-39 70 -162 121q-137 57 -184 102q-94 92 -97 271q-2 188 99 295q57 59 186 110q111 43 129 86q29 49 29 92q0 80 -86 125q-68 35 -156 35q-57 0 -100 -12 q-197 -57 -318 -172q-209 -196 -213 -567z" />
<glyph unicode=")" horiz-adv-x="1107" d="M76 182q0 41 22 82q39 70 162 121q137 57 184 102q94 92 97 271q2 188 -99 295q-57 59 -186 110q-111 43 -129 86q-29 49 -29 92q0 80 86 125q68 35 156 35q57 0 100 -12q197 -57 318 -172q209 -197 213 -567q6 -410 -187 -592q-94 -90 -309 -148q-53 -14 -110 -14 q-102 0 -187 41q-102 53 -102 145z" />
<glyph unicode="*" horiz-adv-x="1204" d="M53 1055q0 125 158 125q68 0 125 -19q-47 25 -80 94.5t-33 126.5q0 78 64 111q39 20 67 20q70 0 133 -94q37 -72 76 -143q59 131 66 141q57 92 127 92q33 0 63 -16q70 -37 70 -119q0 -115 -98 -213q47 29 124 29q160 0 164 -117q2 -72 -63 -112q-57 -35 -133 -35 q-51 0 -88 18q113 -84 112 -192q0 -66 -57 -97q-35 -14 -68 -14q-72 0 -131 76q-29 37 -80 137q-68 -223 -194 -223q-25 0 -55 14q-61 29 -62 111q0 109 68 166q-41 -16 -92 -17q-76 0 -129.5 38t-53.5 112z" />
<glyph unicode="+" horiz-adv-x="1167" d="M49 811q0 141 166 141q25 0 74 -4t73 -4q20 0 33 4q4 20 -6 84q-23 139 -4 223q16 78 164 78q147 0 170 -80q14 -33 14 -82q0 -43 -10 -104q-14 -88 -14 -96q-2 -18 2 -29q14 -10 41 -10t81 10t80 10q145 0 146 -164q0 -117 -74 -124q-18 -2 -139 0q-92 2 -131 -17 q-4 -12 -4 -33q0 -27 7 -82t7 -83q0 -92 -39 -133.5t-133 -41.5q-113 0 -129 76q-20 45 -21 111q0 23 3.5 68.5t3.5 68.5q0 31 -4 53q-10 8 -31 8q-25 0 -76 -7t-76 -7q-63 0 -112 23q-62 47 -62 143z" />
<glyph unicode="," horiz-adv-x="774" d="M178 221q0 70 35 136.5t96 88.5q49 18 105 19q100 0 168.5 -66.5t68.5 -165.5q2 -154 -137 -323q-123 -150 -190 -150q-18 0 -31.5 21.5t-13.5 42.5q0 29 24.5 85t24.5 73q0 6 -2 12q-148 65 -148 227z" />
<glyph unicode="-" horiz-adv-x="1191" d="M59 723q0 121 70 154q123 23 377 22q303 0 455 -22q82 -12 81 -134q0 -96 -63 -149q-199 -20 -518 -21q-223 0 -344 15q-58 29 -58 135z" />
<glyph unicode="." horiz-adv-x="806" d="M195 242q0 158 135 211q47 18 100 18q141 0 223 -149q23 -41 23 -99q0 -121 -117 -194q-55 -35 -119 -35q-104 0 -174.5 72t-70.5 176z" />
<glyph unicode="/" horiz-adv-x="1128" d="M51 174q0 29 10 64q57 203 322 680q250 451 328 536q37 41 114 41q86 0 152 -47q76 -53 70 -135q-53 -205 -293 -656q-221 -420 -363 -610q-66 -43 -143 -43q-80 0 -135 45q-62 47 -62 125z" />
<glyph unicode="0" horiz-adv-x="1249" d="M113 780q0 375 174 588q127 109 340 109t350 -109q160 -240 160 -620q0 -379 -144 -611q-88 -141 -342 -141q-104 0 -209 31q-123 39 -176 106q-74 94 -116 311q-37 180 -37 336zM498 772q0 -68 28 -125q37 -72 99 -72q61 0 98 72q29 57 29 125q0 70 -29 127 q-37 72 -98 72t-99 -72q-28 -57 -28 -127z" />
<glyph unicode="1" horiz-adv-x="1249" d="M258 1262q0 55 70 116q55 49 118 74q109 31 232 31q176 0 237 -80q74 -96 74 -524q0 -502 -49 -773q-20 -115 -248 -114q-207 0 -233 84q-10 53 -10 143q0 127 21.5 380t21.5 380q0 133 -25 170q-16 53 -53 53q-14 0 -43 -8t-43 -8q-39 0 -62 47q-8 13 -8 29z" />
<glyph unicode="2" horiz-adv-x="1249" d="M115 246q0 164 151 313q66 66 279 215q152 106 151 170q0 16 -6 31q-37 86 -51 98q-27 25 -119 25q-72 0 -121 -93.5t-116 -97.5q-70 -4 -117 32t-47 103q0 66 45 158q66 135 191.5 209t277.5 74q162 0 291 -80q141 -88 174 -238q23 -104 22 -200q0 -303 -274 -457 q-100 -55 -103 -68q100 25 185 25q76 0 119 -23q86 -29 86 -184q0 -160 -70 -195q-12 -31 -229 -47q-137 -10 -256 -10q-367 0 -424 64q-39 92 -39 176z" />
<glyph unicode="3" horiz-adv-x="1249" d="M129 1225q0 150 168 213q117 45 293 45q297 0 387 -127q96 -135 96 -289q0 -184 -131 -270q178 -113 178 -324q0 -199 -137 -356q-102 -119 -422 -119q-262 0 -366 82q-57 45 -58 139q0 100 49 168q31 41 90 41q45 0 139.5 -26.5t139.5 -26.5q104 0 104 135 q0 102 -90 102q-31 0 -97 -12t-99 -12q-133 0 -150 162q16 170 187 170h51q66 -2 49 -2q129 0 121 124q-31 117 -121 117q-45 0 -143.5 -38t-143.5 -38q-20 0 -37 7q-57 59 -57 135z" />
<glyph unicode="4" horiz-adv-x="1249" d="M90 541q0 -45 6 -80q106 -137 236 -137q39 0 109.5 22.5t99.5 22.5q35 0 34 -39q0 -29 -15 -88.5t-15 -89.5q0 -49 16 -95q12 -31 92 -49q59 -14 111 -14q113 0 154 49q16 47 16 119q0 53 -10 125l-9 59q33 29 82 29q10 0 33 -2t33 -2q29 0 47 16q49 45 49 160 q0 139 -53 182q-27 27 -66 27q-16 0 -44.5 -6.5t-43.5 -6.5q-23 0 -26 23q16 193 16 330q0 379 -123 374q-23 2 -47 3q-270 0 -487 -340q-195 -305 -195 -592zM506 797q4 29 29 71q29 51 51 52q16 0 18 -31q-2 33 -2 -62q0 -59 -33 -59q-57 0 -43 -2q-24 2 -20 31z" />
<glyph unicode="5" horiz-adv-x="1249" d="M135 975q0 213 76 383q29 131 375 131q473 0 473 -244q0 -57 -27 -108q-47 -59 -168 -64q-23 0 -211 17q-117 10 -143 -17q-59 0 -59 -104q0 -70 41 -92q27 -14 104 -9q113 8 168 4q111 -8 203 -53q147 -98 147 -350q0 -123 -41 -231q-49 -129 -134 -183.5t-331 -54.5 q-319 0 -389 66q-53 49 -53 159q0 104 41 185q27 33 84 32q51 0 149.5 -28.5t147.5 -28.5q78 0 82 80q-8 106 -172 106h-64q-14 0 -37 -2h-26q-129 0 -160 56q-76 137 -76 350z" />
<glyph unicode="6" horiz-adv-x="1249" d="M117 778q0 348 86 502q49 113 194 168q117 47 260 47q401 0 402 -264q0 -111 -60 -184q-29 -4 -53 -5q-51 0 -149 64q-43 14 -95 14q-117 0 -194 -59q-63 -102 -64 -166q0 -43 23 -80q8 -4 20 -4q18 0 111.5 31.5t153.5 31.5q113 0 243 -57q137 -119 138 -352 q0 -102 -31 -205q-39 -127 -107 -174q-131 -90 -356 -90q-334 0 -438 199q-84 225 -84 583zM604 483q0 -6 2 -10q2 -2 2 4q0 -100 103 -90q43 4 57 27q10 16 10 63q0 55 -13 64.5t-71 5.5q-90 -9 -90 -64z" />
<glyph unicode="7" horiz-adv-x="1249" d="M113 1135q0 215 65 247q96 100 410 101q125 0 254 -21q184 -31 223 -92q72 -41 72 -203q0 -209 -111 -569q-96 -313 -203 -535q-33 -70 -172 -69q-55 0 -131 16q-94 20 -110 53q-8 35 -9 72q0 131 88 324q37 82 160 309q88 164 88 217q0 29 -20 45q-63 49 -158 49 q-98 0 -160 -55q-23 -16 -24.5 -70.5t-22.5 -72.5q-53 -47 -108 -47q-29 0 -60 16q-71 39 -71 285z" />
<glyph unicode="8" horiz-adv-x="1249" d="M106 428q0 100 39 201q43 113 115 166q-109 96 -108 268q0 182 90 309q41 59 176 88q96 23 203 23q293 0 368 -119q43 -45 70 -147q23 -86 22 -162q0 -176 -110 -269q80 -49 127 -157q43 -96 43 -201q0 -166 -94 -289q-100 -133 -390 -133q-117 0 -239 29 q-152 33 -217 94q-95 135 -95 299zM528 455q0 -78 93 -78q51 0 71.5 13t20.5 61q0 8 -6 24q-20 51 -82 51q-97 1 -97 -71zM528 1069q0 -78 93 -78q92 0 92 74q0 45 -19.5 60.5t-68.5 15.5q-97 0 -97 -72z" />
<glyph unicode="9" horiz-adv-x="1249" d="M141 342q25 -106 35 -123q39 -66 180 -174q123 -41 230 -41q287 0 420 277q102 209 102 528q0 135 -23 276q-29 184 -82 258t-174 113q-104 35 -211 35q-246 0 -344 -135q-113 -156 -112 -348q0 -197 119 -318q119 -76 227 -76q43 0 113.5 22.5t89.5 22.5q18 0 30 -12 q18 -27 19 -59q0 -82 -77 -140.5t-161 -58.5q-96 0 -180 74q-33 12 -61 12q-53 0 -92.5 -40t-47.5 -93zM514 1065q0 72 115 96q41 8 76.5 -21.5t35.5 -70.5q0 -102 -67 -113q-49 -8 -66 -8q-74 0 -90 78q-4 21 -4 39z" />
<glyph unicode=":" horiz-adv-x="774" d="M174 242q0 158 135 211q51 20 109 20q145 0 215 -151q23 -49 22 -99q0 -121 -116 -194q-55 -35 -119 -35q-104 0 -175 72t-71 176zM174 1081q0 158 135 211q51 20 109 21q145 0 215 -152q23 -49 22 -98q0 -121 -116 -195q-55 -35 -119 -34q-104 0 -175 71.5t-71 175.5z " />
<glyph unicode=";" horiz-adv-x="774" d="M174 1081q0 158 135 211q51 20 109 21q145 0 215 -152q23 -49 22 -98q0 -121 -116 -195q-55 -35 -119 -34q-104 0 -175 71.5t-71 175.5zM178 221q0 74 37 137q59 106 199 107q100 0 168.5 -66.5t68.5 -165.5q2 -158 -135 -323q-123 -150 -192 -150q-8 0 -13 4 q-33 23 -32 60q0 29 24.5 85t24.5 73q0 6 -2 12q-148 65 -148 227z" />
<glyph unicode="&#x3c;" horiz-adv-x="1114" d="M102 750q2 -176 260 -447q250 -260 433 -303q92 0 161.5 60.5t69.5 150.5q0 57 -41 115q-55 78 -248 227q-152 119 -151 197q0 68 200 264q215 211 232 262q0 106 -65.5 166.5t-174.5 60.5q-80 0 -153 -37q-152 -119 -314 -315q-211 -256 -209 -401z" />
<glyph unicode="=" horiz-adv-x="1183" d="M59 518q0 121 70 154q123 23 377 22q303 0 455 -22q82 -12 81 -133q0 -96 -63 -150q-199 -20 -518 -20q-223 0 -344 14q-58 29 -58 135zM59 948q0 121 70 154q123 23 377 22q303 0 455 -22q82 -12 81 -133q0 -96 -63 -150q-199 -20 -518 -20q-223 0 -344 14 q-58 29 -58 135z" />
<glyph unicode="&#x3e;" horiz-adv-x="1122" d="M80 211q0 57 41 115q55 78 248 227q152 119 151 197q0 68 -201 264q-215 211 -231 262q0 106 65.5 166.5t174.5 60.5q80 0 153 -37q152 -119 314 -315q211 -256 209 -401q-2 -176 -261 -447q-250 -260 -432 -303q-92 0 -161.5 60.5t-69.5 150.5z" />
<glyph unicode="?" horiz-adv-x="1150" d="M78 1155q0 16 8 41q51 150 184 227q123 72 289 72q150 0 281 -61q160 -74 182 -205q23 -66 22 -144q0 -127 -55 -229q-59 -113 -168 -164q-37 -18 -67 -49l-90 -92q-35 -76 -105 -76q-84 0 -119 80q-6 16 -12 27q-16 51 -16 98q0 72 55 121q16 16 119 78q115 70 114 141 q0 41 -32 92q-55 88 -156 88q-150 0 -268 -147q-166 0 -166 102zM354 207q10 178 211 176q137 -2 168 -141q6 -29 6 -52q0 -88 -58 -137t-149 -49q-88 0 -139 70q-43 59 -39 133z" />
<glyph unicode="@" horiz-adv-x="1232" d="M8 723q8 387 98 547q129 229 474 217q301 -10 411 -168q90 -131 94 -453q6 -444 -137 -495q-59 -20 -203 -25q-260 -6 -337 55q-88 68 -95 318q-6 231 31 303q43 84 197 86q190 2 231 -80q23 -43 23 -272q0 -135 -2 -148q55 4 55 201q0 76 -12 164q-18 113 -45 143 q-35 39 -211 51q-133 8 -201 -26q-82 -45 -98 -168q-2 -12 -13 -250q-10 -231 66 -324q100 -121 399 -108q41 2 127 19.5t129 17.5q49 0 76 -62q18 -45 18 -102q0 -106 -41 -119q-166 -47 -309 -53q-473 -16 -631 213q-102 149 -94 518zM522 657q4 -47 35 -49q8 -2 25 -4 q12 0 8 123q0 35 -2 107q0 25 -31 24q-33 0 -33 -24v-107q0 -93 -2 -70z" />
<glyph unicode="A" horiz-adv-x="1212" d="M16 223q0 233 58 572q68 395 153 577q57 121 318 121q98 0 182 -27q113 -33 145 -100q72 -141 150 -588q76 -422 76 -616q0 -88 -19 -101q-14 -27 -84 -45q-57 -14 -98 -14q-98 0 -166 59q-63 102 -78 201q-8 72 -26 213q-14 59 -68 60q-23 0 -49.5 -15.5t-24.5 -38.5 q-6 -86 -22 -256q-12 -125 -60 -164q-68 -57 -170 -57q-135 0 -196 80q-21 18 -21 139zM412 954q0 -49 36.5 -80.5t86.5 -31.5q49 0 86.5 31.5t37.5 80.5t-37.5 81t-86.5 32t-86 -32t-37 -81z" />
<glyph unicode="B" horiz-adv-x="1185" d="M27 836q0 -551 94 -707q51 -84 194 -113q84 -16 273 -16q61 0 188 37q137 37 172 72q117 111 117 276q0 145 -104 268q-115 106 -232 154q104 47 172 129q78 95 78 204q0 66 -35 160q-51 139 -131 162q-145 41 -303 41q-139 0 -256 -35q-168 -49 -186 -153 q-41 -102 -41 -479zM401 1118q0 43 33 73t76 30t77 -30t34 -73q0 -45 -33 -74.5t-78 -29.5t-77 29.5t-32 74.5zM422 434q0 47 28.5 91t73.5 44t96.5 -45t51.5 -90q0 -43 -40 -66.5t-85 -23.5q-47 0 -82 21q-43 26 -43 69z" />
<glyph unicode="C" horiz-adv-x="1169" d="M8 788q0 -137 29 -284q37 -180 102 -260q74 -90 135 -125q14 -8 195 -78q131 -33 201 -33q92 0 184 39q135 57 179 116.5t54 184.5q0 6 1 13q0 54 -32 95q-36 46 -98 46q-37 0 -73 -19q-106 -68 -197 -67q-82 0 -170 57q-78 109 -78 264q0 166 64 260q43 63 198 107 q127 35 160 53q76 45 76 135q0 78 -47 132.5t-125 68.5q-154 -10 -184 -16q-119 -23 -236 -107q-197 -139 -313 -385q-25 -72 -25 -197z" />
<glyph unicode="D" horiz-adv-x="1218" d="M61 944q0 -743 74 -848q94 -96 330 -96q131 0 256 35q158 45 219 127q150 199 150 497q0 223 -78 443q-70 197 -144 250q-180 129 -442 129q-98 0 -193 -25q-129 -33 -150.5 -97.5t-21.5 -414.5zM451 885q0 63 57 63q195 0 194 -205q0 -74 -30 -122q-37 -57 -107 -58 q-74 0 -94 53q-12 31 -12 121q0 25 -4 74t-4 74z" />
<glyph unicode="E" horiz-adv-x="1157" d="M39 752q0 475 106 620q80 109 383 109q223 0 400 -74q66 -84 65 -160q0 -61 -47 -98q-14 -10 -41 -10q-31 0 -103.5 13t-109.5 13q-78 0 -135 -35q-66 -41 -65 -114q0 -66 45 -90q41 -31 186 -39q160 -10 192 -21q51 -33 52 -116q0 -63 -45 -91q-33 -6 -86 -6h-54 q-74 2 -55 2q-154 0 -197 -67q10 -232 435 -232h36q78 -23 78 -139q0 -115 -100 -162q-111 -51 -358 -51q-403 0 -504 180q-78 140 -78 568z" />
<glyph unicode="F" horiz-adv-x="1155" d="M29 903q0 270 86 410q106 172 471 172q238 0 424 -78q68 -84 67 -186q0 -76 -49 -113q-14 -10 -41 -10q-37 0 -112.5 13t-114.5 13q-82 0 -137 -32q-70 -41 -70 -117q0 -66 45 -90q41 -31 186 -39q162 -10 193 -21q37 -23 37 -96q0 -88 -60 -123q-31 -6 -84 -6h-55 q-74 2 -55 2q-152 0 -197 -67q-2 -23 -2 -46q0 -55 28.5 -162.5t28.5 -162.5q0 -31 -8 -62q-25 -92 -202 -92q-170 0 -238 125q-29 51 -82 283q-59 262 -59 485z" />
<glyph unicode="G" horiz-adv-x="1202" d="M37 668q0 -238 72 -377q117 -135 202 -191q154 -100 373 -100q182 37 292.5 178t110.5 330q0 82 -24 160q-43 68 -86 133q-49 57 -133 67q-98 0 -105 -2q-29 -8 -65 -69q-6 -88 94 -174q12 -25 12 -54q0 -49 -32.5 -88t-79.5 -39q-86 0 -156 133q-23 43 -23 142 q0 70 13 178q27 119 84 176t176 72q176 20 176 155q0 195 -283 195q-442 0 -594 -510q-24 -176 -24 -315z" />
<glyph unicode="H" horiz-adv-x="1220" d="M51 791q0 451 45 616q55 66 187 66q150 0 176 -154q10 -61 10 -155q0 -73 -6 -165q14 -68 96 -67q88 0 115 74q4 188 4 200q6 117 29 197q20 72 157 72q117 0 156 -60q53 -201 53 -745q0 -285 -14 -561q-16 -45 -78 -72q-51 -20 -109 -21q-131 0 -159 86q-23 125 -33 365 q-4 78 -92 78q-96 0 -96 -82v-77q0 -177 -9 -216q-37 -158 -196 -158q-59 0 -117 21q-74 27 -80 76q-39 268 -39 682z" />
<glyph unicode="I" horiz-adv-x="618" d="M16 784q0 563 41 619q37 68 181 67q156 0 198 -75q33 -59 33 -690q0 -557 -27 -644q-29 -68 -198 -67q-156 0 -183 61q-45 102 -45 729z" />
<glyph unicode="J" horiz-adv-x="1210" d="M49 451q0 63 37 120q37 78 143 78q156 0 177 -166q29 -51 92 -51q80 0 141 78q53 68 53 221q0 260 -153 557q-14 29 -15 55q0 68 84 107q66 29 144 29q203 0 235 -144q80 -188 80 -583q0 -408 -78 -555q-152 -193 -411 -193q-150 0 -279 64q-147 74 -201 198 q-49 115 -49 185z" />
<glyph unicode="K" horiz-adv-x="1202" d="M25 897q0 330 30 528q10 70 168 70q199 0 207 -106q6 -35 6 -86v-54q-2 -72 -2 -53q0 -115 53 -143q9 -2 18 -2q60 0 103 90q23 49 88 196q61 111 146 111q84 0 161.5 -62.5t77.5 -144.5q0 -23 -8 -49q-35 -117 -149 -244q-104 -117 -219 -184q115 -55 229 -201 q137 -176 158 -352q1 -8 0 -15q0 -72 -70 -120q-68 -45 -154 -45q-80 0 -131 39q-35 45 -75 149q-49 127 -70 158q-45 72 -105 72q-16 0 -34 -5q-47 -29 -47 -108q0 -76 47 -223q-25 -106 -183 -107q-88 0 -149 41q-68 47 -72 131q-24 565 -24 719z" />
<glyph unicode="L" horiz-adv-x="1144" d="M6 690q0 285 39 680q35 102 211 103q172 0 213 -91q16 -59 16 -147q0 -100 -34.5 -297t-34.5 -295q0 -45 10 -70q33 -141 244 -141q53 0 166 14q96 12 151 17h9q98 0 98 -174q0 -59 -19 -125q-23 -84 -63 -98q-164 -53 -375 -54q-373 0 -541 144q-90 100 -90 534z" />
<glyph unicode="M" horiz-adv-x="1236" d="M10 784q0 426 45 576q4 63 68 98q51 27 121 27q74 0 129 -33q66 -37 67 -106q37 -90 39 -93q29 -49 78 -53q55 4 84 60q18 47 37 96q2 55 67 88q53 27 115 26q160 0 187 -122q51 -236 51 -662q0 -389 -51 -577q-12 -47 -72 -76q-49 -23 -105 -23q-117 0 -165 86 q-10 31 -11 90q0 63 13.5 192.5t13.5 192.5q0 100 -35 105q-12 0 -27 -43q-16 -53 -30 -76q-27 -41 -78 -41q-55 0 -83 80t-42 80q-47 -12 -47 -125q0 -68 20.5 -204t20.5 -204q0 -33 -6 -47q-47 -84 -181 -84q-135 0 -165 78q-58 141 -58 694z" />
<glyph unicode="N" horiz-adv-x="1241" d="M10 954q0 -315 41 -839q10 -53 86 -80q57 -23 123 -23q162 0 197 97q16 16 16 53q0 57 -39 177t-39 175q0 45 31 49q59 -4 131 -147q43 -88 129 -266q16 -61 88 -97q61 -31 133 -30q131 0 148 77q35 162 35 701q0 471 -35 592q-37 66 -195 65q-137 0 -160 -55 q-16 -18 -16 -66q0 -76 39 -223t39 -223q0 -66 -37 -72q-4 -1 -9 -1q-58 0 -104 128q-14 37 -73 277q-41 160 -80 198q-68 66 -215 66q-195 0 -209 -101q-25 -170 -25 -432z" />
<glyph unicode="O" horiz-adv-x="1202" d="M37 625q0 -172 46 -296t159 -251q127 -70 280 -70q143 0 334 64q139 119 182 264q33 114 34 359q0 27 -1 57q-49 362 -184 532q-166 203 -504 203q-139 -61 -227 -277q-45 -111 -107 -376q-12 -117 -12 -209zM412 705q2 55 32 145q37 111 74 115q9 1 18 0q68 0 128 -41 q68 -47 67 -123q0 -111 -29 -164q-37 -72 -137 -72q-154 0 -154 126q1 7 1 14z" />
<glyph unicode="P" horiz-adv-x="1183" d="M35 793q0 362 57 489q92 209 400 209q227 0 399 -92q195 -66 195 -386q0 -10 -1 -20q-6 -399 -366 -399q-106 0 -242 37q-18 -8 -18 -37q0 -43 56 -193.5t56 -224.5q0 -84 -59 -115q-74 -47 -172 -47q-160 0 -227 82q-37 61 -60 338q-18 212 -18 359zM471 1032 q0 -43 39 -71q33 -27 78 -33q13 -2 25 -2q102 0 122 125q0 80 -172 79q-92 0 -92 -98z" />
<glyph unicode="Q" horiz-adv-x="1214" d="M8 528q0 106 12 213q72 627 330 719q80 29 158 29q170 0 346 -170q184 -178 184 -569q0 -178 -39 -316q43 -49 101 -215q0 -150 -144 -190q-102 4 -141 92q-76 -127 -338 -127q-279 0 -374 152.5t-95 381.5zM416 915q0 -98 4 -108q11 -29 72 -29h16h9q44 0 124 -16 q10 0 12 22q2 31 6 95q1 10 1 20q0 77 -44 102q-29 16 -96 17q-68 0 -80 -10q-24 -19 -24 -93zM438 354q0 -18 58 -18q51 0 57 2q18 6 18 43v43q-8 16 -63 16t-64 -10v-37q0 -6 -3 -19.5t-3 -19.5z" />
<glyph unicode="R" horiz-adv-x="1200" d="M-2 684q0 379 49 592q23 98 150 158q113 53 268 53q227 0 395 -107q186 -119 197 -325l4 -43q4 -42 4 -70q0 -23 -12 -70l-9 -32q-20 -82 -86 -127q-23 -14 -86 -37q-39 -14 -38 -45q0 -10 2 -25q16 -41 82 -121q74 -88 94 -129q51 -98 51 -221q0 -67 -70 -102 q-55 -29 -131 -29q-82 0 -133 31q-41 31 -63 137q-27 129 -48 166q-42 78 -130 78h-5h-7q-48 0 -48 -51q0 -39 21.5 -116t21.5 -116t-18 -61q-63 -80 -191 -80q-57 0 -115 18q-74 23 -94 62q-55 186 -55 612zM391 1004q0 -53 29 -91.5t82 -38.5q148 0 148 117q0 6 -1 13 q-6 98 -143 98q-115 0 -115 -98z" />
<glyph unicode="S" horiz-adv-x="1200" d="M0 213q74 -117 244 -176q137 -47 303 -47q158 0 295 45q240 109 239 387q0 160 -64.5 248t-217.5 133q-264 80 -271 178q-1 7 0 13q0 96 117 96q82 0 191 -66q20 -12 43 -12q63 0 119.5 63.5t56.5 126.5q0 31 -15 55q-94 129 -155 170q-98 66 -271 66q-227 0 -397 -158 q-174 -164 -174 -389q0 -141 81 -243.5t218 -127.5q104 -18 139 -34q55 -25 56 -72q0 -12 -5 -29q-39 -39 -86 -39t-152.5 60.5t-146.5 60.5q-102 0 -135 -137q-12 -53 -12 -172z" />
<glyph unicode="T" horiz-adv-x="1200" d="M2 1247q0 170 68 211q170 31 471 31q276 0 493 -31q72 -33 72 -203q0 -154 -59 -184q-39 -49 -101 -49q-31 0 -90 18.5t-86 18.5q-31 0 -45 -23q-8 -12 -8 -55q0 -131 33.5 -393t33.5 -393q0 -111 -24 -129q-80 -61 -228 -62q-141 0 -178 80q-23 23 -22 121q0 129 40 386 t40 386q0 41 -9 47q-14 31 -51 31q-29 0 -94 -17.5t-100 -17.5q-49 0 -88 20q-68 35 -68 207z" />
<glyph unicode="U" horiz-adv-x="1239" d="M0 905q0 203 41 402q20 94 92 139t166 45q72 0 135 -27q82 -35 82 -98q0 -6 -2 -23q-12 -133 -35 -292q-27 -186 -26 -279q0 -188 110 -192h4q106 0 107 204q0 102 -27 285q-31 211 -35 268v12q0 67 64 105q57 33 137 33q88 0 156 -41q76 -45 94 -127q33 -152 33 -352 q0 -211 -47 -465q-61 -342 -170 -406q-51 -94 -324 -94q-291 0 -330 100q-125 106 -182 375q-43 197 -43 428z" />
<glyph unicode="V" horiz-adv-x="1218" d="M0 1321q2 76 100 123q80 37 166 37q188 0 199 -142q20 -293 31 -401q37 -324 86 -330h1q40 0 42 260q2 369 18 484q-2 9 -1 17q0 59 75 89q61 27 143 27q84 0 154 -27q93 -35 92.5 -100t-5 -138t-9 -125t-16 -135t-16.5 -117t-20 -124.5t-18 -108.5q-78 -473 -174 -538 q-86 -72 -246 -72q-174 0 -256 59q-125 92 -242 535q-105 401 -105 686q0 21 1 41z" />
<glyph unicode="W" horiz-adv-x="1228" d="M0 1395q0 -172 43 -627q49 -510 94 -670q12 -45 72 -67q47 -20 100 -21q80 0 127 37q50 37 50 104q0 7 -1 15l17 145q12 61 55 70q63 -12 76 -215q-2 -72 55 -115q49 -39 123 -39q121 0 154 99q141 688 141 1278q0 57 -84 84q-57 18 -129 18q-63 0 -117 -16 q-78 -23 -71 -72l18 -156q10 -94 10 -170q0 -127 -47 -131q-12 0 -27 43q-16 53 -30 76q-27 41 -78 41q-55 0 -83 -80t-42 -80q-53 14 -53 111q0 47 24 186q17 97 17 143v17q0 92 -199 92q-72 0 -129 -18q-86 -27 -86 -82z" />
<glyph unicode="X" horiz-adv-x="1198" d="M25 236q0 111 94 245q8 10 121 148q55 67 55 106q0 41 -68 144q-102 154 -121 188q-66 123 -65 217q0 79 76 143q74 59 157 60q61 0 115 -31q39 -29 103 -211q57 -164 94 -164q27 0 65 156q43 180 82 223q57 41 131 41q86 0 153 -52q65 -51 64 -131q0 -130 -63 -257 q-33 -66 -119 -191q-68 -98 -74 -139q6 -49 119 -209q106 -152 129 -262q20 -41 21 -96q0 -78 -51.5 -120t-131.5 -42q-45 0 -98 14h-7q-53 0 -87 93q-20 63 -62 188q-37 104 -84 106q-39 0 -86 -106q-41 -94 -86 -195q-55 -102 -129 -102h-6q-99 0 -169 66q-72 68 -72 170z " />
<glyph unicode="Y" horiz-adv-x="1173" d="M43 1372q0 51 90 86q72 29 133 29q90 0 105 -53q27 -35 49 -121q27 -98 41 -127q30 -59 86 -60h4q123 6 168 301q14 57 131 58q74 0 141 -29q84 -37 84 -102q-33 -336 -67 -441q-68 -203 -250 -245q-10 -23 -10 -70q0 -70 19 -209t19 -209q0 -51 -6 -78q-20 -94 -211 -94 q-68 0 -143 21q-102 27 -107 73q-1 11 0 26q0 71 17 212q23 182 22 238q0 59 -14 86q-190 70 -256 280q-45 143 -45 428z" />
<glyph unicode="Z" horiz-adv-x="1222" d="M6 334q0 -227 90 -268q96 -76 391 -76q119 0 254 16q176 20 240 60q119 43 119 190q0 63 -25 125q-31 72 -82 92q-20 12 -59 12q-55 0 -162.5 -26.5t-163.5 -26.5q-49 0 -57 29q-4 61 217 182q238 129 272 209q45 72 45 266q0 186 -79 271q-147 104 -504 104 q-317 0 -445 -80q-51 -45 -51 -176q0 -176 64 -209q16 -27 61 -27q53 0 166 34t170 34q80 0 106 -57q12 -12 13 -29q0 -41 -170 -158q-109 -72 -217 -141q-143 -100 -168 -192q-25 -56 -25 -158z" />
<glyph unicode="[" horiz-adv-x="1122" d="M102 750q-2 -289 48 -447q80 -246 301 -289q74 -14 344 -14q176 0 194 10q43 18 43 144q0 23 -4 155q-2 70 -80 70q-29 0 -85 -7t-85 -7q-240 0 -221 380q-10 176 31 261q55 113 213 112q-14 0 49 -2h45q123 0 123 103q-2 203 -14 231q-20 47 -132 47q-41 0 -124.5 -2 t-126.5 -2h-27q-25 2 -39 2h-66q-190 0 -270 -115q-113 -161 -117 -630z" />
<glyph unicode="\" horiz-adv-x="1120" d="M47 1313q53 -205 293 -656q221 -420 362 -610q66 -43 144 -43q80 0 138 46t58 124q0 29 -10 64q-57 203 -321 680q-250 451 -328 536q-37 41 -115 41q-84 0 -151 -47q-76 -53 -70 -135z" />
<glyph unicode="]" horiz-adv-x="1146" d="M74 154q0 23 4 155q2 70 80 70q29 0 85 -7t85 -7q240 0 221 380q10 176 -31 261q-55 113 -213 112q14 0 -49 -2h-45q-123 0 -123 103q2 203 14 231q20 47 131 47q41 0 125 -2t127 -2h27q25 2 39 2h65q190 0 271 -115q113 -162 117 -630q2 -289 -48 -447 q-80 -246 -301 -289q-74 -14 -344 -14q-176 0 -194 10q-43 19 -43 144z" />
<glyph unicode="^" horiz-adv-x="1173" d="M121 1028q0 -63 34.5 -112.5t96.5 -49.5q35 0 63 19q43 39 136 186q72 115 118 115q37 0 138 -131q109 -141 142.5 -156.5t68.5 -15.5q57 0 86.5 43t29.5 102q0 141 -223 342q-150 133 -242 137q-117 -8 -274 -186q-151 -170 -174 -293z" />
<glyph unicode="_" horiz-adv-x="1210" d="M80 170q0 121 70 154q123 23 376 22q303 0 455 -22q82 -12 82 -134q0 -96 -64 -149q-199 -20 -518 -21q-223 0 -344 15q-57 29 -57 135z" />
<glyph unicode="`" horiz-adv-x="950" d="M336 1350q0 -113 108 -217q96 -94 205 -95q66 0 108 41t42 107q0 92 -84 188q-121 113 -242 113q-59 0 -98 -39t-39 -98z" />
<glyph unicode="a" horiz-adv-x="1214" d="M23 467q0 147 88 229q119 111 272 111q96 0 270 -64q78 0 78 88q0 57 -37 107.5t-90 69.5q-68 23 -135 22q-66 0 -156 -41t-116 -41q-41 0 -88 31q-51 72 -52 137q0 68 52 117q125 123 415 123q289 0 406 -139q84 -49 119 -314q23 -166 22 -358q0 -319 -53 -441 q-18 -98 -156 -98q-109 0 -123 64q-98 -43 -217 -43q-252 0 -397 131q-102 133 -102 309zM350 430q0 -49 29 -68q16 -10 72 -16q16 -2 31 -2q40 0 73 12q57 20 57 76q0 90 -145 111q-11 2 -20 1q-39 0 -65 -26q-32 -33 -32 -88z" />
<glyph unicode="b" horiz-adv-x="1171" d="M39 711q0 -420 65 -566q35 -78 187 -114q106 -27 227 -27q137 0 258 33q131 35 178 92q129 154 129 352q0 199 -135 320q-119 68 -227 67q-59 0 -146.5 -34.5t-99.5 -34.5q-18 0 -29 14q-35 53 -34 156q0 72 29.5 211t29.5 209q0 18 -4 28q-20 76 -184 76 q-158 0 -187 -80q-20 -43 -38.5 -247.5t-18.5 -454.5zM438 438q0 109 82 121q53 8 78 8q86 0 107 -82q6 -25 6 -41q0 -78 -138 -102q-10 -2 -20 -2l-70 22q-45 29 -45 76z" />
<glyph unicode="c" horiz-adv-x="1175" d="M14 641q0 -252 125 -397q72 -82 135 -117q18 -10 195 -76q131 -31 201 -31q94 0 184 37q133 55 178 111.5t55 175.5q1 9 1 17q0 50 -31 86q-37 42 -99 42q-37 0 -73 -16q-106 -66 -197 -65q-82 0 -170 55q-78 106 -78 188q0 139 174 230q57 29 289 102q35 35 35 100 q0 76 -47 127.5t-125 65.5q-150 -10 -184 -16q-135 -25 -236 -103q-190 -121 -313 -366q-19 -68 -19 -150z" />
<glyph unicode="d" horiz-adv-x="1214" d="M23 481q0 199 135 320q119 68 227 67q59 0 146 -34.5t100 -34.5q18 0 28 14q35 53 35 156q0 72 -29.5 211t-29.5 209q0 18 4 28q20 76 184 76q158 0 187 -80q20 -43 38.5 -247.5t18.5 -454.5q0 -420 -66 -566q-35 -78 -186 -114q-106 -27 -227 -27q-137 0 -258 33 q-131 35 -178 92q-129 153 -129 352zM395 444q0 -78 137 -102q10 -2 21 -2l70 22q45 29 45 76q0 109 -82 121q-53 8 -78 8q-86 0 -107 -82q-6 -25 -6 -41z" />
<glyph unicode="e" horiz-adv-x="1200" d="M14 641q0 -252 125 -397q72 -82 135 -117q18 -10 195 -76q131 -31 201 -31q94 0 184 37q133 55 178 111.5t55 175.5q1 9 1 17q0 50 -31 86q-37 42 -99 42q-37 0 -73 -16q-84 -53 -172 -53q-35 0 -195 43q-35 10 -60.5 39.5t-25.5 64.5q0 39 35 60q6 4 20 4 q39 0 124 -17.5t128 -17.5q242 0 289 278q0 408 -344 408q-4 0 -86 -6q-74 -2 -190 -14q-291 -66 -375 -471q-19 -89 -19 -150zM492 958q0 37 32.5 58.5t71.5 21.5q37 0 69.5 -21.5t32.5 -58.5t-32.5 -58t-69.5 -21q-39 0 -71.5 21t-32.5 58z" />
<glyph unicode="f" horiz-adv-x="1196" d="M6 877q0 152 76 167q16 6 39 7q27 0 88 -13.5t92 -13.5q45 0 82 20q17 10 17 49q0 16 -3 37q-15 102 -14 141q0 226 285 226q106 0 202 -43q49 -51 52 -55q18 -27 18 -58q0 -33 -22 -100q-61 -33 -101 -33q-10 0 -29.5 4.5t-29.5 4.5q-70 0 -70 -78q0 -53 31 -88 q12 -22 68 -22q33 0 81 7q57 8 98 8q60 0 83 -18q45 -27 45 -133q0 -47 -13 -100q-14 -74 -43 -86q-27 -12 -81 -12q-38 0 -91 5q-38 5 -64 5q-53 0 -63 -19q-18 -18 -18 -98q0 -76 15.5 -226.5t15.5 -226.5q0 -49 -7 -78q-27 -55 -176 -55q-182 0 -192 76q-16 51 -17 137 q0 66 13.5 196t13.5 195q0 113 -78 113q-31 0 -89 -12.5t-89 -12.5q-29 0 -49 11q-76 20 -76 172z" />
<glyph unicode="g" horiz-adv-x="1226" d="M0 133q27 -102 41 -123q45 -70 203 -178q152 -51 278 -51q297 0 449 274q125 227 125 563q0 139 -25 275q-31 182 -96.5 254t-206.5 110q-115 31 -238 31q-270 0 -378 -131q-129 -158 -129 -352q0 -199 135 -320q119 -68 231 -67q66 0 164 35.5t113 35.5q20 0 30 -14 q23 -31 23 -69q0 -96 -98 -164q-90 -59 -191 -60q-109 0 -203 72q-35 14 -67 14q-55 0 -102.5 -41t-57.5 -94zM416 862q0 78 137 103q10 2 20 1l70 -22q45 -29 45 -76q0 -109 -82 -120q-53 -8 -78 -9q-86 0 -106 82q-6 25 -6 41z" />
<glyph unicode="h" horiz-adv-x="1159" d="M49 1028q0 242 21 375q14 90 153 90q43 0 107 -14q82 -18 82 -47q20 -25 20 -95t-21.5 -210t-21.5 -209q0 -96 35 -97q20 0 109.5 25.5t144.5 25.5q94 0 207 -26q186 -70 186 -471q0 -254 -43 -330q-20 -47 -137 -47q-104 0 -140 35t-36 135q0 33 5 99.5t5 99.5 q0 152 -107 151q-53 0 -139 -35q-43 -10 -43 -108q0 -37 6.5 -107.5t6.5 -107.5q0 -68 -17 -97q-14 -66 -162 -65q-156 0 -174 65q-47 635 -47 965z" />
<glyph unicode="i" horiz-adv-x="610" d="M12 1276q14 219 254 219h8q94 -2 139.5 -42t67.5 -132q8 -33 8 -64q0 -109 -72.5 -170t-183.5 -61q-98 0 -162 76q-59 69 -59 157q-1 8 0 17zM16 502q0 313 41 368q37 68 181 68q156 0 198 -76q33 -59 33 -407q0 -307 -27 -394q-29 -68 -198 -67q-156 0 -183 61 q-45 103 -45 447z" />
<glyph unicode="j" horiz-adv-x="1206" d="M10 219q0 106 111 150q57 16 90 16q53 0 111 -53q16 -14 84 -94q37 -43 112 -43q102 0 160 57q53 82 53 203q0 59 -24.5 171.5t-24.5 168.5q0 63 68 102q55 33 122 33q141 0 166 -125q51 -262 52 -481q0 -289 -115 -416q-119 -133 -402 -133q-182 0 -323 82 q-154 88 -217 249q-23 58 -23 113zM524 1276q14 219 254 219h8q94 -2 139.5 -42t67.5 -132q8 -33 8 -66q0 -109 -72.5 -169t-183.5 -60q-98 0 -162 76q-59 69 -59 157q-1 8 0 17z" />
<glyph unicode="k" horiz-adv-x="1206" d="M25 897q0 330 30 528q10 70 168 70q199 0 207 -106q6 -35 6 -105v-82q0 -16 -2 -49v-35q0 -201 53 -229q9 -2 18 -2q60 0 103 90q23 49 88 197q61 111 146 110q84 0 161.5 -62.5t77.5 -144.5q0 -23 -8 -49q-59 -201 -307 -346q135 -63 222 -191.5t104 -279.5q1 -8 0 -15 q0 -72 -70 -120q-68 -45 -154 -45q-80 0 -131 39q-35 45 -75 149q-49 127 -70 158q-45 72 -105 72q-16 0 -34 -5q-47 -29 -47 -108q0 -76 47 -223q-25 -106 -183 -107q-88 0 -149 41q-68 47 -72 131q-24 565 -24 719z" />
<glyph unicode="l" horiz-adv-x="833" d="M27 696q0 283 36 674q37 102 213 103q170 0 211 -91q18 -59 19 -147q0 -100 -35 -297t-35 -295q0 -45 8 -70q-2 -31 -2 -49q0 -134 157 -134q11 0 24 1q123 -4 122 -160q0 -123 -83 -165q-121 -61 -244 -62q-188 0 -303 152q-88 116 -88 540z" />
<glyph unicode="m" horiz-adv-x="1234" d="M20 741q0 365 43 455q29 86 162 86q123 0 133 -61l19 -113q-1 8 -1 15q0 62 60 108q59 45 135 45q139 0 187 -146q31 141 149 142q94 0 144 -98q37 -152 36 -506q0 -459 -45 -613q-33 -59 -131 -59q-86 0 -102 65q-27 31 -27 189v145q0 135 -25 136q-1 0 -1 -1 q-35 2 -35 -174v-30q2 -31 2 -47v-78q0 -117 -14 -152q-10 -27 -74 -41q-49 -12 -90 -12q-109 0 -129 59q-8 25 -8 86q0 35 2 105.5t2 105.5q0 166 -42 166q-32 0 -32 -217q0 -109 8 -246q-33 -57 -133 -57q-39 0 -84 12q-61 16 -66 45q-43 291 -43 686z" />
<glyph unicode="n" horiz-adv-x="1234" d="M16 717q0 381 47 479q29 88 146 88q51 0 92 -20q51 -25 55 -70q0 -27 4 -33q6 -12 31 -14q5 0 10 -1q37 0 66 28q39 39 84 57q78 33 158 33q150 0 259 -99.5t107 -246.5q16 -143 17 -330q0 -367 -50 -533q-31 -57 -180 -57q-135 0 -151 68q-18 20 -19 133q0 47 3 142 t3 142q0 310 -91 310h-9q-20 -4 -106 -21q-51 -10 -62 -86q-4 -20 -4 -117v3q12 -166 12 -492q0 -78 -180 -78q-184 0 -197 74q-45 266 -45 641z" />
<glyph unicode="o" horiz-adv-x="1200" d="M31 539q0 -156 46 -258.5t159 -214.5q129 -59 282 -60q141 0 332 55q143 104 184 228q31 93 31 305v51q-51 330 -203 477q-162 156 -485 156q-141 -53 -227 -236q-43 -92 -107 -325q-12 -100 -12 -178zM412 725q37 94 73 96q8 0 15 1q64 0 123 -31q76 -41 75 -111 q0 -203 -166 -203q-154 0 -153 112q0 52 33 136z" />
<glyph unicode="p" horiz-adv-x="1177" d="M43 567q0 428 66 574q35 78 186 114q106 27 227 27q137 0 258 -33q131 -35 178 -92q129 -154 129 -352q0 -199 -135 -320q-119 -68 -227 -67q-59 0 -146 34.5t-100 34.5q-18 0 -28 -14q-35 -53 -35 -158q0 -74 29.5 -220t29.5 -218q0 -18 -4 -29q-20 -76 -184 -75 q-158 0 -187 80q-20 43 -38.5 251.5t-18.5 462.5zM442 848q0 -109 82 -121q53 -8 78 -8q86 0 107 82q6 25 6 41q0 78 -137 102q-10 2 -20 2l-71 -22q-45 -29 -45 -76z" />
<glyph unicode="q" horiz-adv-x="1200" d="M23 805q0 -199 135 -320q119 -68 227 -67q59 0 146 34.5t100 34.5q18 0 28 -14q35 -53 35 -158q0 -74 -29.5 -220t-29.5 -218q0 -18 4 -29q20 -76 184 -75q158 0 187 80q20 43 38.5 251.5t18.5 462.5q0 428 -66 574q-35 78 -186 114q-106 27 -227 27q-137 0 -258 -33 q-131 -35 -178 -92q-129 -153 -129 -352zM395 842q0 78 137 102q10 2 21 2l70 -22q45 -29 45 -76q0 -109 -82 -121q-53 -8 -78 -8q-86 0 -107 82q-6 25 -6 41z" />
<glyph unicode="r" horiz-adv-x="1167" d="M20 797q0 -158 21 -369q29 -303 78 -332q33 -86 184 -86q145 0 186 86q27 23 27 86q0 66 -26.5 199t-26.5 199q0 74 29 102q41 66 229 109q100 20 301 63q41 4 63 59q16 43 17 93q0 66 -25 108q-31 51 -84 52q-4 0 -8 -1q-47 6 -94 6q-201 0 -395 -112q-47 -6 -47 18 q2 10 12 64q2 13 2 24q0 28 -14 43q-8 70 -156 70q-57 0 -115 -14q-80 -18 -96 -56q-62 -79 -62 -411z" />
<glyph unicode="s" horiz-adv-x="1196" d="M0 199q76 -100 244 -154q135 -41 288 -41q182 0 310 45q240 84 239 326q0 141 -73 217q-63 66 -209 102q-138 34 -204.5 72t-66.5 86q0 39 35 63q33 20 82 21q82 0 191 -55q20 -10 43 -11q59 0 117.5 51.5t58.5 108.5q0 25 -15 45q-94 109 -155 144q-98 55 -271 55 q-209 0 -381 -123q-190 -137 -190 -338q0 -113 80 -199q84 -92 219 -110q195 -27 195 -90q0 -10 -5 -25q-39 -33 -86 -33q-49 0 -151 51.5t-148 51.5q-102 0 -135 -111q-12 -40 -12 -149z" />
<glyph unicode="t" horiz-adv-x="1198" d="M6 1040q0 -152 76 -168q16 -6 35 -6q25 0 75 13.5t74 13.5q39 0 76 -21q16 -8 16 -61q0 -76 -19.5 -227.5t-19.5 -227.5q0 -125 33 -186q86 -162 291 -162q166 0 318 82q139 76 139 203q0 125 -109 170q-27 6 -49 6q-45 0 -95 -34t-73 -34q-16 0 -39 9q-53 20 -53 217 q0 199 37 239q12 22 68 22q33 0 81 -7q57 -8 98 -9q60 0 83 19q45 27 45 133q0 47 -13 100q-14 74 -43 86q-24 11 -72 12q-39 0 -94 -8q-36 -5 -62 -4q-77 0 -77 39q0 -15 1 -15q2 0 9 61q9 76 9 112v12q-2 43 -84 66q-55 14 -115 14q-170 0 -176 -69q-1 -9 -1 -19 q0 -54 19 -139q0 -16 -24 -53q-14 -12 -47 -13q-31 0 -89.5 9.5t-89.5 9.5q-39 0 -63 -13q-76 -20 -76 -172z" />
<glyph unicode="u" horiz-adv-x="1234" d="M0 776q0 176 41 346q18 80 94 121q68 37 164 37q70 0 131 -20q86 -31 86 -86q0 -6 -2 -21q-12 -113 -35 -252q-27 -160 -26 -239q0 -162 110 -166h5q106 0 106 176q0 88 -27 246q-35 212 -35 239q0 60 68 92q57 27 133 27q84 0 152 -33q80 -39 98 -110q33 -131 33 -304 q0 -184 -47 -403q-63 -291 -170 -346q-51 -80 -324 -80q-289 0 -330 86q-123 88 -182 317q-43 170 -43 373z" />
<glyph unicode="v" horiz-adv-x="1226" d="M0 1133q2 68 106 106q78 31 160 31q74 0 127 -25q72 -31 72 -96l41 -406q25 -219 76 -223h1q40 0 42 223q2 317 18 416q-1 8 -1 15q0 52 79 79q63 20 139 21q82 0 150 -21q97 -29 96 -89q0 -56 -4.5 -119.5t-9 -107t-16 -117.5t-16.5 -100t-20.5 -108t-17.5 -92 q-41 -221 -59 -278q-41 -123 -117 -179q-88 -63 -258 -63q-166 0 -242 47q-127 78 -242 459q-105 346 -105 591q0 19 1 36z" />
<glyph unicode="w" horiz-adv-x="1243" d="M0 1169q0 -152 43 -524q45 -387 94 -567q23 -80 162 -80q80 0 131 33q57 34 57 95q0 10 -2 19l17 146q12 61 55 69q63 -12 76 -215q-2 -68 51 -107.5t123 -39.5q123 0 158 92q141 686 141 1073q0 57 -84 84q-57 18 -129 19q-63 0 -117 -17q-78 -23 -71 -71l18 -156 q10 -94 10 -170q0 -127 -47 -131q-12 0 -27 43q-16 53 -30 76q-27 41 -78 41q-55 0 -83 -80t-42 -80q-53 14 -53 110q0 47 24 187q17 97 17 143v17q0 92 -199 92q-72 0 -129 -19q-86 -27 -86 -82z" />
<glyph unicode="x" horiz-adv-x="1202" d="M18 199q0 82 72 176q25 33 133 143q66 68 66 99q0 25 -127 205t-127 277q0 71 82 124q74 47 151 47q61 0 115 -27q39 -25 102 -176q59 -137 95 -137q27 0 65 131q43 150 82 186q57 35 131 35q80 0 143 -39q74 -44 74 -117q0 -105 -63 -219q-37 -66 -119 -172 q-68 -88 -74 -121q6 -35 120 -176t128 -219q18 -41 18 -76q0 -72 -63 -108q-51 -31 -127 -31q-41 0 -88 10q-59 2 -96 86q-27 70 -56 140q-43 96 -88 98q-39 0 -86 -88l-86 -164q-55 -86 -129 -86h-7q-92 0 -161 49q-80 58 -80 150z" />
<glyph unicode="y" horiz-adv-x="1177" d="M4 1159q0 63 100 98q76 25 154 25q158 0 168 -76q16 -113 33 -198q23 -119 92 -134q74 0 98 125q10 68 35 203q20 72 180 72q80 0 142 -29q80 -35 80 -100q0 -105 -70 -281q-51 -129 -170 -360q-70 -135 -211 -404q-172 -312 -316 -311h-8q-133 6 -202 76q-45 45 -46 84 q0 94 177 354q125 184 125 207q0 8 -9 12q-184 68 -280 299q-72 172 -72 338z" />
<glyph unicode="z" horiz-adv-x="1218" d="M6 289q0 -197 90 -232q117 -57 424 -57q354 0 461 57q119 37 119 164q0 57 -27 109q-31 59 -80 78q-20 12 -59 12q-55 0 -162.5 -23.5t-163.5 -23.5q-49 0 -57 24q-4 55 217 158q238 111 272 178q45 61 45 230q0 160 -79 233q-143 86 -494 86q-319 0 -455 -65 q-51 -39 -51 -152q0 -152 64 -180q16 -23 61 -23q55 0 167 30t169 30q80 0 106 -52q12 -10 13 -22q0 -37 -172 -137q-106 -61 -215 -121q-143 -86 -168 -166q-25 -47 -25 -135z" />
<glyph unicode="{" horiz-adv-x="1071" d="M145 741q0 -39 76 -125t66 -151q-82 -106 -82 -197q0 -133 168 -205q129 -55 284 -55q121 0 209 39q119 51 119 156q0 29 -10 61q-20 66 -115 66q-37 0 -107.5 -12.5t-105.5 -12.5q-55 0 -55 39q0 35 43 107q-2 82 -49 137l-88 76q-45 39 -45 88q2 63 47 106q29 27 88 78 q49 57 55 143q-14 47 -14 76q0 53 57 53q27 0 81 -10t81 -10q78 0 98 61q12 37 12 72q0 96 -100 145q-76 35 -184 35q-47 0 -99 -8q-350 -55 -350 -281q0 -92 66 -192q-2 -66 -74 -144t-72 -135z" />
<glyph unicode="|" horiz-adv-x="618" d="M16 817q0 592 41 647q6 43 185 43q170 0 194 -51q33 -68 33 -721q0 -594 -27 -674q-23 -68 -196 -67q-158 0 -185 61q-45 103 -45 762z" />
<glyph unicode="}" horiz-adv-x="1056" d="M88 203q0 29 10 61q20 66 115 66q37 0 107.5 -12.5t105.5 -12.5q55 0 55 39q0 35 -43 107q2 82 49 137l88 76q45 39 46 88q-2 63 -48 106q-29 27 -88 78q-49 57 -55 143q14 47 14 76q0 53 -57 53q-27 0 -81 -10t-81 -10q-78 0 -98 61q-12 37 -12 72q0 96 100 145 q76 35 184 35q47 0 99 -8q350 -55 350 -281q0 -92 -66 -192q2 -66 74 -143.5t72 -135.5q0 -39 -76 -125t-66 -151q82 -106 82 -197q0 -133 -168 -205q-129 -55 -284 -55q-121 0 -209 39q-119 52 -119 156z" />
<glyph unicode="~" horiz-adv-x="1208" d="M31 1128q0 117 119 254q35 41 103.5 76t119.5 35q125 0 178 -43q10 -8 59 -82q29 -43 95 -45q43 0 79 51q27 39 60 82q45 35 96 35q61 0 102 -46t41 -110q0 -63 -41 -127q-66 -102 -124 -147q-88 -68 -218 -72q-94 -4 -155 41q-14 10 -82 84q-39 43 -84 37 q-33 -8 -68 -43q-12 -16 -37 -47q-61 -70 -131 -70q-53 0 -82.5 41t-29.5 96z" />
<glyph unicode="&#xa0;" />
<glyph unicode="&#xa1;" horiz-adv-x="575" d="M31 211q0 125 35 369q39 270 78.5 351t101.5 81q59 0 99 -90.5t75 -341.5q31 -223 31 -357q0 -98 -19 -123q-45 -98 -196 -98q-68 0 -119 25q-68 31 -74 90q-12 22 -12 94zM55 1305q0 88 58.5 137t148.5 49q80 0 133.5 -60.5t46.5 -140.5q-12 -180 -213 -178 q-76 2 -112.5 35t-55.5 106q-6 27 -6 52z" />
<glyph unicode="&#xa2;" horiz-adv-x="1220" d="M10 653q0 100 94 254q0 82 2 244q4 174 46.5 227.5t113.5 53.5q92 0 121 -84q25 90 117 90q82 0 112 -64q51 -109 41 -448q115 -78 129 -275q16 4 52 6q162 -20 206 -241q2 -6 33 -121v2q12 -10 33 -33q31 -25 31 -69q0 -49 -37 -103v-2q-35 -51 -121 -65 q-117 -18 -254 -19q-152 0 -151 51v9q-70 -66 -152 -66q-96 0 -115 96q-53 -76 -141 -76q-41 0 -55 29l-23 45l-2 2q-14 66 -14 281q0 8 3 21.5t3 21.5q-4 20 -45 100q-27 53 -27 133zM45 653q0 -72 27 -125q39 -76 45 -102l2 -4q0 -8 -4 -22.5t-4 -22.5v-137q2 -82 14 -134 l18 -36q16 -12 39 -13q43 0 80 39q31 33 43 78q0 27 14 125q4 35 13 76q4 14 16 14q18 0 17 -20q-2 -23 -17 -129q-8 -72 -4 -129q18 -76 86 -76q80 0 145 78q16 20 37 69t33 68q6 8 17 8q16 0 16 -18q0 -4 -2 -11q-53 -84 -64 -172q2 -10 35 -12q193 -8 330 14q63 10 98 52 q29 49 29 82q0 16 -35 67q-41 59 -53 119q-23 109 -43 141q-68 113 -152 101q-68 -10 -69 24q-12 188 -123 256q-8 6 -8 14q6 174 4 226q-4 143 -41 219q-20 43 -80 43q-88 0 -88 -96v-349q0 -18 -17 -18q-16 0 -18 18q0 162 -14 322q-6 76 -39 102q-20 14 -62 15 q-88 0 -112 -113q-10 -45 -13 -182q-2 -207 -4 -211q-92 -146 -92 -238zM98 639q0 18 17 18h65q18 0 19 -18q0 -16 -19 -16h-65q-17 0 -17 16zM113 588q0 18 16 18h59q16 0 17 -18q0 -16 -17 -17h-59q-16 1 -16 17zM119 530q0 16 18 17h58q18 0 18 -17q0 -18 -18 -18h-58 q-18 0 -18 18zM233 965v284q0 18 17 19q18 0 18 -19v-284q0 -18 -18 -19q-17 1 -17 19zM254 745q0 49 45 50q45 0 45 -50q0 -49 -45 -49t-45 49zM291 745q0 -14 8 -14q10 0 10 14t-10 15q-8 -1 -8 -15zM307 565q0 18 19 19q6 0 10 -2q47 -35 84 -35q23 0 33 10l20 21l8 6 q16 12 27 22q18 0 18 -16q0 -14 -32 -39q-23 -39 -72 -39t-107 41q-8 4 -8 12zM352 651q0 27 31 41h8q4 0 10 2h11q41 0 34 -49q-6 -45 -51 -45q-43 0 -43 51zM391 647q0 -4 2 -8l4 -4q12 4 15 14v10q-6 0 -13.5 -4t-7.5 -8zM467 748q0 49 45 49t45 -49t-45 -50 q-45 1 -45 50zM489 971v286q0 18 19 19q16 0 16 -19v-286q0 -16 -16 -17q-19 1 -19 17zM502 748q0 -12 10 -13q10 0 10 13q0 14 -10 14t-10 -14zM621 662q0 25 69 24q16 0 17 -18q0 -16 -17 -17q-29 0 -45 -6q-24 -10 -24 17zM629 625q0 18 16 18h37q18 0 18 -18t-18 -19 h-37q-16 1 -16 19zM635 582q0 16 18 16h43q18 0 19 -16q0 -18 -19 -19h-43q-18 1 -18 19z" />
<glyph unicode="&#xa3;" horiz-adv-x="1130" d="M-4 272q0 123 88 465q4 18 -29 80q-39 66 -43 86v2q-6 41 -6 90q0 190 74 328q37 70 98 76q45 0 85 -72t50 -72q-14 0 39 2q51 10 123 31q12 4 38 67.5t71 63.5q33 0 78 -76q111 -186 110 -354q0 -76 -24 -145q199 -131 241 -344q35 -176 35 -234q0 -266 -289 -266 q-29 0 -87 2t-87 2q-18 -2 -45 25l-4 4q-98 -53 -182 -53q-59 0 -90 49l-2 4q-63 -33 -86 -33q-12 0 -23 4h-2q-78 20 -107 105v2q-24 75 -24 161zM35 270q0 -80 18 -149q27 -63 84 -84q20 -4 92 33q0 168 21 264q2 12 16 12q23 0 19 -20q-10 -43 -10.5 -134.5t-10.5 -136.5 q6 -10 19 -26q29 -12 61 -13q68 0 158 52q6 4 12 4q0 31 53 145q4 14 21.5 30.5t32.5 16.5q16 0 16 -18q0 -8 -17.5 -19.5t-19.5 -19.5v-4q-57 -106 -51 -148q2 -6 0 -10q6 -6 10 -6q29 0 86 -2t86 -2q258 0 258 231q0 49 -35 226q-41 207 -237 329q-12 8 -6 21 q27 70 26 147q0 162 -119 359q-23 37 -38 36q-14 0 -33 -41q-10 -27 -22.5 -53t-37.5 -35q-43 -14 -129 -32h-4q-8 0 -22 -2q-12 -2 -21 0q-35 2 -70.5 72.5t-60.5 70.5q-63 -6 -110 -168q-35 -123 -23 -287q4 -18 45 -88q35 -57 27 -92q-27 -115 -56 -227 q-28 -136 -28 -232zM111 924q0 16 18 16h68q16 0 16 -16q0 -18 -16 -19h-68q-18 1 -18 19zM127 852q0 18 16 18q35 0 50 2q20 6 20 -16q0 -23 -70 -22q-16 0 -16 18zM150 784q0 10 20 21q35 16 39 16q16 0 16 -16q0 -25 -53 -37q-22 -7 -22 16zM229 1010q0 20 15.5 39.5 t36.5 19.5q20 0 36.5 -18.5t16.5 -38.5t-16.5 -37t-36.5 -17q-52 1 -52 52zM266 1018q-6 -12 4 -23q18 -4 29 15q6 12 -16 24q-9 -2 -17 -16zM332 844q0 18 18 18q4 0 27.5 -16.5t40.5 -16.5q23 0 43 23q14 14 14 20q0 16 19 17q16 0 16 -17q0 -20 -21.5 -42.5t-40 -28.5 t-30.5 -6q-27 0 -78 34q-8 7 -8 15zM350 932q0 12 6 22q16 35 43 35q20 0 36 -18.5t16 -38.5q0 -18 -16.5 -34.5t-35.5 -16.5q-49 0 -49 51zM385 930q0 -6 6 -12q16 -4 25 14q0 14 -15 22q-8 -2 -14 -16q-2 -4 -2 -8zM436 1042q0 12 4 23q18 35 47 35q20 0 37 -17.5 t17 -38.5q0 -20 -16.5 -37.5t-37.5 -17.5q-51 0 -51 53zM471 1040q0 -8 6 -12q18 -6 27 14q6 12 -17 25q-16 -4 -16 -27zM590 987q0 12 12 17q20 -2 47 0q4 6 10 6q16 0 17 -19q0 -29 -45 -22q-16 2 -19 0q-22 -5 -22 18zM598 932q0 16 16 16q39 0 54 6q25 10 24 -16 q0 -25 -78 -25q-16 1 -16 19zM614 891q0 18 19 18q-2 0 39 -20q12 -6 16 -23q4 -20 -18 -20q-12 0 -17 14q-2 0 -12 4q-27 9 -27 27zM623 485q0 106 63 140q43 31 78 -4l2 -3q10 -8 20 -38v-2q25 -223 103 -291q6 -4 6 -13q0 -18 -18 -18q-6 0 -13 4q-86 76 -112 311 q-2 8 -11 23q-10 8 -20 8q-8 0 -16 -6l-3 -2q-45 -20 -45 -107q0 -49 15 -88q10 -29 64.5 -103.5t80.5 -98.5q6 -6 6 -13q0 -18 -18 -18q-6 0 -12 4q-20 20 -82 102t-72 115q-16 47 -16 98z" />
<glyph unicode="&#xa4;" />
<glyph unicode="&#xa5;" horiz-adv-x="1189" d="M43 1389q-4 63 84 92q63 23 139 20q51 0 107 -141q100 -156 178 -154q98 2 211 158q8 10 47 88q27 53 47 53q74 -2 129 -28q70 -33 70 -99v-8q0 -129 -93.5 -246.5t-265.5 -165.5l2 -59q143 -2 273 -18q84 -10 84 -117q0 -88 -66 -135q-61 -6 -272 -13l2 -36 q92 0 252 -15q84 -16 84 -119q0 -86 -66 -133q-49 -4 -248 -12q4 -72 4 -131q0 -57 -6 -80q-18 -63 -71 -82q-25 -8 -97 -12q-158 -8 -182 67q-12 39 -12 95q0 88 4 145q-115 -2 -250 4q-59 18 -59 121q0 113 116 141q25 6 201 13l2 30q-119 2 -260 11q-59 20 -59 120 q0 113 116 142q25 6 201 14l-4 55q-172 82 -244 164q-86 101 -98 271z" />
<glyph unicode="&#xa6;" />
<glyph unicode="&#xa7;" horiz-adv-x="1202" d="M14 348q0 -47 64 -104q-33 -23 -33 -70q0 -70 45 -122t113 -52q53 0 159.5 18.5t159.5 18.5q61 0 183 -13.5t184 -13.5q63 0 104 58q39 51 39 116q0 61 -41 76q37 2 60.5 32t23.5 68q0 47 -45 105l-78 90q102 117 103 315q0 195 -99 299q51 61 52 121q0 61 -46.5 103.5 t-107.5 42.5q-115 0 -133 -127q-51 33 -150 32q-72 0 -188 -32q-10 45 -51 86t-84 41q-63 0 -117 -37q-59 -41 -59 -103q0 -53 41 -129q-94 -117 -95 -282q0 -94 70 -213l68 -119v-4q-37 -39 -107 -121q-35 -66 -35 -80zM51 354q16 35 21 56q119 117 118 141q0 12 -68.5 129 t-68.5 205q0 143 94 270q0 6 3 12q0 6 -22 54.5t-22 74.5q0 47 50 78q41 27 92 27q35 0 68.5 -40t33.5 -75q0 -14 21 -14q33 0 98.5 17.5t99.5 17.5q23 0 78 -11.5t71.5 -20.5t20.5 -9q14 2 15 16v-4q18 74 22 84q20 41 68 41q49 0 89 -33t40 -80q0 -31 -27.5 -71.5 t-27.5 -51.5q6 -10 40 -59q61 -86 62 -229q0 -162 -64 -258q-37 -57 -43 -62q0 -8 63.5 -84t63.5 -127q0 -33 -39.5 -48t-74.5 -28q-111 -45 -150 -106l-2 -12q0 -10 10 -11l9 2q94 92 155 93q51 0 51 -56q0 -51 -30.5 -94t-79.5 -43q-61 0 -182 13.5t-183 13.5 q-45 0 -143 -11q-6 -2 -88 -16q-55 -10 -88 -10q-55 0 -90 42t-35 97q0 53 41 53q74 0 168 -116q16 0 16 20q0 45 -77.5 92t-123.5 41q-51 55 -53 90zM211 866q0 -61 46 -107t108 -46q80 0 129 75q43 66 43 150q0 55 -38 89t-96 34q-106 0 -161 -96q-31 -56 -31 -99z M246 866q0 35 26.5 82t57.5 66q20 12 76 12q96 0 96 -88q0 -70 -33 -125q-39 -66 -102 -65q-49 0 -85 34.5t-36 83.5zM352 358q0 -18 17 -18q88 80 188 80q94 0 184 -80q16 0 17 18q0 37 -84 70q-70 27 -117 27q-125 0 -199 -84q-6 -7 -6 -13zM356 948q0 -16 16.5 -32.5 t33.5 -16.5q16 0 37.5 16.5t21.5 32.5q0 57 -59 58q-18 0 -34 -19t-16 -39zM393 952l2 6l11 13q12 0 24 -23q-16 -10 -27 -12q-4 2 -10 16zM420 113q0 -18 18 -19q-2 0 40 25.5t73 25.5q18 0 70 -10q4 -2 23.5 -26.5t23.5 -24.5q18 0 18 16q0 80 -135 80q-27 0 -76 -22 q-55 -25 -55 -45zM446 637l5 -14q45 -43 112 -43q113 0 113 67q0 16 -19 17q-10 0 -20 -19.5t-16 -21.5q-18 -8 -56 -9q-51 0 -84 29q2 27 -16 27t-19 -19v-14zM506 737q0 -51 43 -51q16 0 32.5 19.5t16.5 35.5q0 43 -35 43q-57 0 -57 -47zM541 737l4 11l16 2q2 -2 2 -9 q0 -8 -18 -18zM598 905q0 -61 50 -120.5t112 -59.5q59 0 101 52t42 114q0 66 -53 111t-121 45q-59 0 -95 -40.5t-36 -101.5zM633 905q0 106 98 107q51 0 94 -36t43 -87q0 -47 -31.5 -88t-76.5 -41q-47 0 -87 48t-40 97zM680 940q0 -16 16.5 -32.5t32.5 -16.5t37.5 16.5 t21.5 32.5q0 23 -18 40t-41 17q-49 0 -49 -57zM715 944l2 8l12 11q12 0 23 -23q-14 -10 -25 -12q-6 2 -12 16z" />
<glyph unicode="&#xa8;" horiz-adv-x="1146" d="M88 1290q0 133 113 178q45 18 92 19q131 0 182 -129q16 -41 17 -86q0 -102 -95 -160q-49 -31 -102 -31q-88 0 -147.5 60.5t-59.5 148.5zM600 1284q0 145 129 184q35 10 80 11q131 0 178 -127q10 -45 10 -82q0 -111 -88 -166q-47 -29 -102 -29q-88 0 -147.5 60.5 t-59.5 148.5z" />
<glyph unicode="&#xa9;" horiz-adv-x="1245" d="M2 557q0 233 163 396t396 163t395 -162.5t162 -396.5q0 -233 -161.5 -396t-395.5 -163q-233 0 -396 163t-163 396zM100 557q0 -193 134.5 -327t326.5 -134q193 0 326 134.5t133 326.5q0 193 -133 327t-326 134t-327 -134t-134 -327zM238 555q0 -139 69 -221 q45 -53 76 -66q6 -6 109 -43q74 -16 112 -16q53 0 105 20q70 27 95 57.5t36 102.5q2 82 -74 82q-20 0 -41 -10q-59 -37 -111 -37q-45 0 -94 33q-45 57 -45 104q0 80 98 129q29 14 162 58q20 18 21 55q0 90 -97 108q-82 -6 -104 -10q-76 -14 -131 -57q-106 -68 -176 -205 q-10 -37 -10 -84z" />
<glyph unicode="&#xaa;" horiz-adv-x="1789" d="M16 1040v7q8 133 105 196q29 18 59 19q49 0 78 -39q63 -88 84 -109q55 -57 115 -57q80 0 129 90q37 68 55 88q27 20 55 20q41 0 78 -49q27 -37 39 -86v-4q0 -10 -4 -31.5t-4 -29.5q10 -29 14 -87.5t12 -84.5q57 14 121 14q106 0 219 -37q59 135 203 135q145 0 242 -123 q70 -90 70 -200q0 -57 -19 -121q-39 -129 -80 -356q-57 -201 -309 -201l-4 2q-16 4 -35 29l-10 10q-14 4 -49 -16.5t-45 -22.5l-2 -2q-61 0 -89 67q-8 35 -26 117q-8 37 -70 37q23 0 -94 -8l-82 -6q-51 -10 -65 -43q-49 -86 -91 -125q-63 -57 -145 -47q-43 6 -53 59 q-14 70 -19 74q-74 -109 -145 -109q-29 0 -47 19q-72 70 -84 239q-2 37 -8 131q-2 29 -31 74q-35 51 -41 70q-20 70 -20 178q0 145 34 270q-2 4 -12 13l-8 8q-9 8 -21 28zM49 1051q18 -12 31 -25q10 0 32.5 -3t32.5 -3q33 0 56 27q4 4 10 4q16 0 16 -15q0 -20 -28.5 -33.5 t-53.5 -13.5q6 0 -55 6q0 -8 -2 -14q-37 -123 -37 -276q0 -133 37 -189l37 -53q18 -33 20 -62l9 -129q6 -72 24 -127q37 -104 78 -104q43 0 125 109q4 6 12 6q27 0 41 -37q6 -29 12 -60q10 -41 29 -43q117 -16 203 156q33 66 176 66q82 10 96 10q84 0 99 -64q6 -33 21 -95 t60 -62q8 2 48 26q29 18 53 13h4q-2 180 59 180q16 0 17 -17q0 -8 -8 -12q-37 -27 -37 -176q8 -12 14 -14q225 0 276 174q43 227 82 358q16 55 17 109q0 119 -81 208t-198 89q-133 0 -180 -127q-2 -16 -4 -47q-2 -27 10 -48q51 -68 133 -67q68 0 68 57q0 16 -6 35h-29 q-16 0 -16 14q0 16 16 17h41q27 0 27 -62q0 -90 -111 -90q-90 0 -149 78q-16 29 -17 53q0 18 6 51q-111 37 -213 37q-66 0 -125 -16q-25 -6 -32 63q-2 41 -15 115q0 -16 -20.5 -27.5t-38.5 -11.5q-29 0 -59 17q-29 8 -29 36q0 16 14.5 45t28.5 29q16 0 16 -16q0 -6 -6 -10 q-23 -23 -22 -46q0 -8 8 -10h2q57 -29 80 2q12 16 24 0q-2 4 -4 11v6q0 10 4 31.5t4 31.5q-29 109 -86 109q-33 0 -86 -99.5t-153 -99.5q-66 0 -129 59q-37 35 -97 121q-16 25 -51 25q-23 0 -41 -12q-74 -49 -90 -168zM90 678q0 14 16 14h97q16 0 16 -14q0 -16 -16 -16h-97 q-16 0 -16 16zM106 629q0 16 17 16h65q14 0 15 -16q0 -16 -15 -17h-65q-17 1 -17 17zM139 547q0 10 8 14l50 25q23 10 22 -15q0 -10 -8 -14l-49 -25q-23 -10 -23 15zM279 815q0 49 38 49q41 0 41 -39t-28 -49h-4q-20 0 -39 23l-2 4l-2 2q-4 6 -4 10zM309 821l2 -2 q4 -6 13 -12q8 4 4 16q-6 10 -11 11zM342 547q0 23 23 14q88 -33 190 -8l2 6q10 29 29 29q16 0 16 -17q0 -6 -7 -13t-9 -11l-2 -6q-8 -16 -19 -17q-51 -12 -98 -12q-59 0 -115 20q-10 5 -10 15zM416 662q0 59 2 63l2 4q10 10 26 8q37 -4 27 -4q14 0 14 -14q0 -90 -47 -84 q-24 2 -24 27zM444 707l2 -41q12 8 11 39q-5 0 -13 2zM539 840q0 27 24 43q6 6 15 6q41 0 40 -39q0 -39 -26 -49h-6q-18 0 -39 22l-2 4l-2 2q-4 7 -4 11zM569 846l2 -2q4 -6 13 -13q8 4 4 17q-6 10 -10 10zM692 711q0 14 17 14h73q14 0 15 -14q0 -16 -15 -17h-73 q-17 1 -17 17zM717 662q0 14 16 14h49q14 0 15 -14q0 -16 -15 -17h-49q-16 1 -16 17zM733 612q0 25 23 15q41 -20 41 -39q0 -16 -15 -17q-6 0 -22.5 13.5t-21.5 15.5t-5 12z" />
<glyph unicode="&#xab;" horiz-adv-x="1204" d="M18 444q2 -104 158 -266q150 -158 258 -182q53 0 95 36t42 89q0 39 -22 69q-31 41 -150 136q-94 74 -92 118q0 41 121 160q129 127 139 156q0 137 -143 137q-49 0 -92 -23q-90 -68 -189 -188q-127 -156 -125 -242zM522 444q2 -102 158 -266q152 -156 258 -182q55 0 96 37 t41 90q0 35 -24 67q-37 51 -148 138q-92 72 -92 116q0 41 121 160q129 127 139 158q0 63 -40 99t-103 36q-49 0 -92 -20q-90 -70 -189 -191q-125 -154 -125 -242z" />
<glyph unicode="&#xac;" />
<glyph unicode="&#xad;" />
<glyph unicode="&#x2212;" />
<glyph unicode="&#xae;" horiz-adv-x="1245" d="M2 557q0 233 163 396t396 163t395 -162.5t162 -396.5q0 -233 -161.5 -396t-395.5 -163q-233 0 -396 163t-163 396zM100 557q0 -193 134.5 -327t326.5 -134q193 0 326 134.5t133 326.5q0 193 -133 327t-326 134t-327 -134t-134 -327zM299 547q0 199 25.5 300t207.5 101 q111 0 195 -51q96 -59 100 -164q2 -74 -2 -92l-4 -16q-14 -57 -69 -76q-39 -12 -35 -41q4 -4 65 -86q47 -63 49 -146q2 -68 -100 -67q-41 0 -67 14q-18 14 -41 113q-18 80 -80 78q-29 2 -29 -25q0 -20 10.5 -58t10.5 -59q0 -20 -9 -30q-31 -39 -94 -39q-86 0 -104 39 q-29 92 -29 305zM496 707q0 -63 55 -64q78 0 74 64q-4 49 -72 49q-57 0 -57 -49z" />
<glyph unicode="&#xaf;" />
<glyph unicode="&#x2c9;" />
<glyph unicode="&#xb0;" />
<glyph unicode="&#xb1;" horiz-adv-x="1157" d="M43 979q0 141 166 141q25 0 74 -4t73 -4q20 0 35 2q2 20 -8 86q-23 135 -2 223q16 78 162 78q147 0 170 -80q14 -33 14 -82q0 -45 -10 -106q-14 -90 -15 -94q-2 -18 3 -29q14 -12 43 -12q25 0 79 11t82 11q145 0 146 -164q0 -119 -76 -125q-12 -2 -137 0q-92 0 -131 -16 q-6 -12 -6 -33q0 -29 7 -84t7 -84q0 -174 -170 -174q-113 0 -131 78q-20 43 -21 109q0 23 3 69.5t3 69.5q0 31 -4 53q-10 6 -30 6q-25 0 -76 -7t-76 -7q-63 0 -113 25q-61 47 -61 143zM61 170q0 111 68 141q123 23 377 23q295 0 455 -23q80 -12 79 -149q0 -115 -61 -133 q-199 -18 -518 -19q-223 0 -344 13q-56 45 -56 147z" />
<glyph unicode="&#xb2;" horiz-adv-x="768" d="M8 913q0 80 90 152q31 25 168 102q90 51 90 82q0 18 -24 51q-16 23 -82 23q-41 0 -72 -45t-69 -47q-98 -2 -99 65q0 33 27 76q84 135 282 135q88 0 166 -34q92 -43 113 -117q14 -53 14 -96q0 -145 -166 -220q-59 -27 -61 -32q59 12 111 12q45 0 71 -12q51 -12 51 -88 q0 -78 -40 -93q-16 -29 -291 -28q-221 0 -256 30q-23 45 -23 84z" />
<glyph unicode="&#xb3;" horiz-adv-x="763" d="M20 1374q0 125 277 125q182 0 231 -61q59 -61 60 -140q0 -88 -80 -129q106 -55 106 -155q0 -96 -82 -172q-59 -55 -251 -56q-254 0 -254 105q0 47 28 82q16 20 54 20q29 0 84 -13t83 -13q61 0 62 65q0 49 -53 49q-20 0 -58.5 -6t-58.5 -6q-82 0 -90 78q10 82 110 82h31 q20 -2 29 -2q78 0 74 61q-18 55 -74 55q-27 0 -85.5 -18t-84.5 -18q-12 0 -23 4q-35 26 -35 63z" />
<glyph unicode="&#xb4;" horiz-adv-x="894" d="M319 1196q0 102 84 188q113 115 242 115q61 0 99 -39t38 -100q0 -106 -110 -215q-98 -96 -203 -96q-66 0 -108 40.5t-42 106.5z" />
<glyph unicode="&#xb5;" />
<glyph unicode="&#x3bc;" />
<glyph unicode="&#xb6;" horiz-adv-x="1859" d="M12 725q0 180 105 365l2 2q72 72 93 88t124 53q80 35 96.5 35t54.5 6q35 6 60 0h4q6 -4 54 -8t95 -33q61 -37 95 -47q12 8 43 31q25 18 43 18t39 -16q39 -31 45 -29h2q6 0 50 29.5t79 23.5l2 -2q16 -2 43.5 -28.5t29.5 -26.5q18 0 57.5 25.5t57.5 25.5q37 0 76 -53 q6 -10 24 -23q78 31 101 31q27 0 57 -16q70 -37 70 -111q0 -23 -10 -45l10 -4q98 -20 98 -98q0 -45 -47 -84q47 -23 57 -82q8 -47 -47 -105q57 -29 58 -94q0 -57 -52 -86q35 -25 35 -68q0 -53 -49 -69q-6 -2 -27 -8q-55 -139 -98 -205q-80 -121 -178 -121q-55 0 -94 37 q-14 0 -47 -15.5t-52 -15.5q-55 0 -104 86q-41 72 -43 117q0 33 -2 65q-4 43 -21 56q-20 23 -63 22q-59 0 -90 -47q-12 -16 -45 -100q-29 -76 -53 -113q-57 -88 -134 -88q-45 0 -114 74q-66 -63 -121 -64q-27 0 -55 15q-94 47 -95 192q0 61 19 143q-129 55 -183.5 139.5 t-54.5 225.5zM47 727q0 -100 33 -188q29 -57 90 -101q4 4 10 4q74 -8 94 35q4 10 15 10q25 0 14 -22q-23 -47 -88 -53q18 -10 39 -19q4 6 14 4q47 -10 90 33q4 4 11 4q16 0 16 -16q0 -6 -4 -10q-45 -43 -96 -43q0 -29 -10.5 -85.5t-10.5 -84.5q0 -104 76 -142q20 -10 41 -10 q29 0 59 20q23 18 43 37q6 86 -12 246q-4 14 10 19q20 6 27 -39q6 -55 6 -217v-3q74 -74 104 -73q80 0 138 133q70 160 73 164q33 49 107 49q119 0 119 -125q0 -72 24 -135q33 -84 95 -84q2 0 88 28q14 119 18 142q14 90 43 133q4 8 12 8q16 0 17 -16q0 -4 -2 -8 q-25 -41 -60 -267q31 -29 76 -28q127 0 246 309q4 10 39 20q29 10 32 33q6 39 -41 64q-12 4 -12 16t17 16q55 16 55 70q0 51 -47 68q-18 4 -19 16q0 6 31 43t25 66q-10 59 -62 63q-14 2 -16 10q-4 10 8 19q57 39 57 78q0 10 -2 22q-10 29 -63 45t-53 23q0 4 6 10 q16 23 16 49q0 39 -30.5 65.5t-69.5 26.5q-18 0 -53 -15.5t-44 -15.5q-16 0 -48.5 38t-53.5 38q-14 0 -48 -24.5t-56 -24.5q-18 -6 -47 22.5t-43 34.5q-23 2 -62 -25.5t-59 -27.5q-20 -4 -52 21.5t-38 23.5q-12 -4 -43 -26.5t-41 -22.5h-2q16 -31 41 -94q16 -78 16 -166 q0 -242 -158 -281q-102 -27 -157 -4q-133 51 -138 264q-2 129 66 175q39 25 82 24q76 0 102 -76q27 -78 -6 -123q-6 -6 -12 -6q-16 0 -17 15q0 2 7.5 21.5t7.5 33.5q0 82 -43 96q-18 6 -39 6q-51 0 -82 -30q72 -47 72 -70q0 -16 -17 -16q-8 0 -12 8q-10 16 -62 53 q-16 -35 -16 -100q0 -39 6 -88q23 12 68 32q20 6 20 -14q0 -12 -10 -14q-29 -16 -74 -35q12 -76 86 -117l13 13v4q16 43 55 84q6 4 12 4q16 0 17 -17q0 -6 -7 -10q-37 -37 -47 -70q-6 -16 -12 -22q27 -6 55 -6q49 0 99 24q-18 23 -47 80q-4 16 12 21q14 2 18 -13 q0 -4 43 -71q57 49 74 118q-66 23 -72 66q-2 14 15 16q8 2 19 -18.5t42 -32.5q6 51 6 99q0 29 -2 55h-76q-16 0 -16 16q0 14 16 15h72q-4 29 -31.5 94t-27.5 71l-6 2q-16 -25 -35 -65q-6 -16 -21 -10q-14 4 -10 18q14 23 39 72q-39 23 -55 31q-35 16 -60 18q0 -29 -16 -86 q-4 -14 -19 -10q-14 4 -10 20q6 25 14 78q-23 0 -36 8q-18 2 -80 -6q-6 -33 -10 -94q2 -16 -13 -19q-16 -2 -18 15q6 31 10 94q-8 0 -82 -31q-90 -33 -112.5 -48t-90.5 -85q-96 -168 -96 -344zM147 850q-10 33 6.5 60.5t51.5 27.5q63 0 63 -59q0 -76 -57 -76q-52 0 -64 47z M176 874q0 -39 33 -38q27 0 27 43q0 41 -43 26q-17 -6 -17 -31z" />
<glyph unicode="&#xb7;" />
<glyph unicode="&#x2219;" />
<glyph unicode="&#xb8;" />
<glyph unicode="&#xb9;" horiz-adv-x="630" d="M39 1380q0 61 113 93q51 14 139 14q102 0 141 -39q45 -47 45 -250q0 -231 -31 -371q-12 -57 -147 -57q-125 0 -141 41q-4 27 -4 70q0 61 12 182t12 182q0 106 -47 107q-8 0 -25.5 -4.5t-25.5 -4.5q-41 0 -41 37z" />
<glyph unicode="&#xba;" horiz-adv-x="1957" d="M16 639q0 31 31 79t35 66l-6 4q-59 39 -60 50q0 8 6.5 12t28 12t37.5 37l41 162q33 125 72 125q14 0 35.5 -19.5t27.5 -33.5q4 -2 10 0q45 78 80 77q16 0 37 -16q10 -6 17 -33l43 43l2 2q12 8 24 8t15 -10l2 -2q12 0 24 -14q31 -23 31 -37q0 -6 -6 -12t10 -43 q27 -29 31 -41q16 -84 47 -117q37 -18 65 -18q18 0 33 8l2 2q47 29 125 119q74 84 127 114q145 84 369 97q201 12 293 -74q59 -55 59 -125q0 -23 -8 -45q39 -18 70.5 -82t31.5 -109q0 -82 -92 -157q57 -29 96 -86.5t39 -118.5q0 -135 -174 -209q-70 -29 -213 -55 q-10 -47 -22 -95q-20 -55 -68 -61q-182 -29 -348 0q-111 18 -195 18q-131 0 -248 -36q-57 -18 -102 -19q-27 -6 -55 -6q-10 0 -193 33h-2q-25 4 -48 28.5t-46 44.5q-8 6 -51 99l-2 6q-2 29 -2 57q0 53 18 135q25 111 29 136q-51 -4 -60 6q-43 51 -43 94zM47 639 q0 -31 35 -72q8 0 26.5 2t26.5 2q16 0 15 -16q-2 -45 -27 -147q-20 -94 -21 -148q0 -23 2 -43q16 -41 39 -84q29 -31 84 -70q27 -2 97 -18q61 -12 98 -12q23 0 43 4h4q43 0 94 16q123 39 258 39q92 0 201 -18q160 -27 338 0q37 6 54.5 78.5t25.5 74.5q135 25 202 52 q115 45 156 129q12 25 12 53q0 59 -38.5 112.5t-94.5 73.5q-49 -33 -125 -65q-119 -53 -128 -57.5t-13 -4.5q-12 0 -12 17q0 10 10 14l190 86q106 51 154 133q14 25 14 53q0 74 -59 144q-23 27 -74 26q-86 0 -194 -65q-170 -102 -180 -107q-23 -10 -23 15q0 8 10 12 q199 121 201 121q125 66 219 55q4 18 4 35q0 57 -45 101t-104.5 56.5t-124.5 12.5q-236 0 -398 -92q-49 -29 -124.5 -117t-126.5 -117q-23 -16 -52 -16q-33 0 -82 24l-4 2q-39 39 -57 131q-6 10 -23 31l-4 4q-16 35 -16 56q0 10 4 16l-37 25q-6 2 -10 2q-53 -53 -76 -50 q-10 2 -14 17l-4 22q-14 8 -25 9q-6 0 -10 -5q-12 -12 -39 -59l-2 -2q-12 -12 -35 -8q-25 2 -29 20q-12 23 -32 31q-23 -18 -56 -166q-29 -135 -84 -156q53 -33 54 -47q0 -20 -23 -55q-45 -70 -45 -90zM205 934q0 57 53 57t53 -57t-53 -57t-53 57zM236 934q0 -27 22 -27 q23 0 23 27t-23 27q-22 0 -22 -27zM291 764q0 14 16 14q10 -2 25 -37q8 -25 18 -49q86 14 105 66q10 31 10 63q0 59 -35 92q-4 6 -4 11q0 16 16 16q6 0 11 -4q43 -43 43 -115q0 -98 -68 -137q-43 -25 -78 -25q-27 0 -26 17q-35 61 -33 88zM469 395q0 80 45 219q6 23 25 41 q4 6 10 7q16 0 16 -17q0 -6 -4 -10q-16 -16 -33 -76q-27 -96 -26 -164q0 -233 352 -233q262 0 262 114q0 78 -84 101q-14 6 -12 18t16 13q25 0 84 -11q53 -10 82 -8q-2 70 -114.5 177.5t-112.5 123.5t16 17q10 0 15 -9q23 -41 88 -100q76 -68 98 -96q45 -59 41 -129 q-2 -35 -109 -8l-16 4q39 -41 39 -90q0 -104 -170 -136q-68 -12 -139 -12q-369 0 -369 264z" />
<glyph unicode="&#xbb;" horiz-adv-x="1208" d="M31 123q0 63 132 171.5t132 149.5q0 37 -130 169t-130 149q0 61 40 98t103 37q55 0 92 -20q6 -4 60 -54q254 -238 254 -379q0 -96 -135 -241q-117 -127 -226 -185q-43 -23 -55 -22q-55 0 -96 36t-41 91zM535 121q0 66 132 175.5t132 147.5q0 39 -130 169t-130 147 q0 63 39.5 100t103.5 37q51 0 92 -23q12 -6 60 -51q254 -238 253 -379q0 -94 -137 -241q-119 -129 -223 -185q-43 -23 -55 -22q-53 0 -95 36t-42 89z" />
<glyph unicode="&#xbc;" horiz-adv-x="1298" d="M25 1413q0 55 112 92q66 14 139 15q104 0 142 -39q45 -47 45 -252q0 -233 -31 -371q-12 -55 -147 -55q-125 0 -142 41q-4 25 -4 67q0 61 12.5 182t12.5 183q0 109 -47 108q-8 0 -25.5 -4t-25.5 -4q-41 0 -41 37zM92 182q0 20 8 39q88 197 314 610q213 395 307 613 q18 45 86 45q74 0 134 -50t60 -122q0 -16 -4 -35q-223 -426 -624 -1229q-37 -39 -90 -39q-66 0 -128.5 52.5t-62.5 115.5zM608 575q0 125 277 125q182 0 231 -61q59 -61 60 -139q0 -88 -80 -129q106 -55 106 -156q0 -96 -82 -172q-59 -55 -252 -55q-254 0 -254 104 q0 47 29 82q16 20 53 21q29 0 84.5 -13.5t83.5 -13.5q61 0 62 65q0 49 -54 50q-20 0 -59 -6.5t-59 -6.5q-80 0 -90 78q12 82 112 82h31q20 -2 29 -2q78 0 73 61q-18 55 -73 56q-27 0 -85.5 -18.5t-84.5 -18.5q-12 0 -23 4q-35 26 -35 63z" />
<glyph unicode="&#xbd;" horiz-adv-x="1320" d="M25 1413q0 55 112 92q66 14 139 15q104 0 142 -39q45 -47 45 -252q0 -233 -31 -371q-12 -55 -147 -55q-125 0 -142 41q-4 25 -4 67q0 61 12.5 182t12.5 183q0 109 -47 108q-8 0 -25.5 -4t-25.5 -4q-41 0 -41 37zM92 182q0 20 8 39q88 197 314 610q213 395 307 613 q18 45 86 45q74 0 134 -50t60 -122q0 -16 -4 -35q-223 -426 -624 -1229q-37 -39 -90 -39q-66 0 -128.5 52.5t-62.5 115.5zM606 139q0 80 90 152q31 25 168 102q90 51 90 82q0 74 -104 74q-43 0 -74 -45t-69 -47q-98 -4 -99 65q0 31 29 76q84 135 281 135q90 0 165 -35 q92 -41 113 -116q14 -53 14 -99q0 -145 -166 -217q-59 -27 -61 -35q61 14 113 15q43 0 69 -13q53 -14 54 -88q0 -78 -43 -94q-14 -27 -291 -26q-221 0 -256 30q-23 43 -23 84z" />
<glyph unicode="&#xbe;" horiz-adv-x="1288" d="M25 1413q0 55 112 92q66 14 139 15q104 0 142 -39q45 -47 45 -252q0 -233 -31 -371q-12 -55 -147 -55q-125 0 -142 41q-4 25 -4 67q0 61 12.5 182t12.5 183q0 109 -47 108q-8 0 -25.5 -4t-25.5 -4q-41 0 -41 37zM92 182q0 20 8 39q88 197 314 610q213 395 307 613 q18 45 86 45q74 0 134 -50t60 -122q0 -16 -4 -35q-223 -426 -624 -1229q-37 -39 -90 -39q-66 0 -128.5 52.5t-62.5 115.5zM547 305q0 -23 4 -39q63 -66 141 -65q23 0 65 11t60 11q20 0 21 -20q0 -12 -9.5 -40t-9.5 -44q0 -25 10 -45q14 -31 123 -31q66 0 92 23q10 23 11 57 q-2 14 -13 88q20 14 62.5 13t54.5 7q29 20 29 76q0 100 -72 101q-8 0 -25.5 -3.5t-25.5 -3.5q-14 0 -16 11q10 94 10 159q0 182 -74 181q-170 16 -311 -152q-127 -152 -127 -295zM797 428q2 14 18 35.5t29 21.5q10 0 10 -43q0 -29 -18 -28q-41 0 -39 14z" />
<glyph unicode="&#xbf;" horiz-adv-x="1126" d="M82 422q0 127 55 229q59 113 168 164q37 18 68 49l90 92q35 76 104 76q84 0 119 -80q6 -16 12 -26q16 -51 17 -99q0 -72 -56 -120q-16 -16 -118 -78q-115 -70 -115 -142q0 -41 33 -92q55 -88 155 -88q150 0 269 148q166 0 166 -103q0 -16 -9 -41q-51 -150 -184 -227 q-123 -72 -289 -72q-150 0 -280 62q-160 76 -183 205q-22 65 -22 143zM387 1317q0 88 58.5 137t148.5 49q88 0 139 -69q43 -59 39 -134q-10 -178 -211 -176q-137 2 -168 142q-6 26 -6 51z" />
<glyph unicode="&#xc0;" />
<glyph unicode="&#xc1;" />
<glyph unicode="&#xc2;" />
<glyph unicode="&#xc3;" />
<glyph unicode="&#xc4;" horiz-adv-x="1212" d="M90 1831q0 133 113 178q45 18 92 19q131 0 182 -129q16 -41 17 -86q0 -102 -95 -160q-49 -31 -102 -31q-88 0 -147.5 60.5t-59.5 148.5zM602 1825q0 145 129 184q35 10 80 11q131 0 178 -127q10 -45 10 -82q0 -111 -88 -166q-47 -29 -102 -29q-88 0 -147.5 60.5 t-59.5 148.5zM16 223q0 233 58 572q68 395 153 577q57 121 318 121q98 0 182 -27q113 -33 145 -100q72 -141 150 -588q76 -422 76 -616q0 -88 -19 -101q-14 -27 -84 -45q-57 -14 -98 -14q-98 0 -166 59q-63 102 -78 201q-8 72 -26 213q-14 59 -68 60q-23 0 -49.5 -15.5 t-24.5 -38.5q-6 -86 -22 -256q-12 -125 -60 -164q-68 -57 -170 -57q-135 0 -196 80q-21 18 -21 139zM412 954q0 -49 36.5 -80.5t86.5 -31.5q49 0 86.5 31.5t37.5 80.5t-37.5 81t-86.5 32t-86 -32t-37 -81z" />
<glyph unicode="&#xc5;" horiz-adv-x="1212" d="M16 223q0 233 58 572q68 395 153 577q57 121 318 121q98 0 182 -27q113 -33 145 -100q72 -141 150 -588q76 -422 76 -616q0 -88 -19 -101q-14 -27 -84 -45q-57 -14 -98 -14q-98 0 -166 59q-63 102 -78 201q-8 72 -26 213q-14 59 -68 60q-23 0 -49.5 -15.5t-24.5 -38.5 q-6 -86 -22 -256q-12 -125 -60 -164q-68 -57 -170 -57q-135 0 -196 80q-21 18 -21 139zM412 954q0 -49 36.5 -80.5t86.5 -31.5q49 0 86.5 31.5t37.5 80.5t-37.5 81t-86.5 32t-86 -32t-37 -81z" />
<glyph unicode="&#xc6;" />
<glyph unicode="&#xc7;" horiz-adv-x="1169" d="M8 788q0 -137 29 -284q37 -180 102 -260q74 -90 135 -125q14 -8 195 -78q131 -33 201 -33q92 0 184 39q135 57 179 116.5t54 184.5q0 6 1 13q0 54 -32 95q-36 46 -98 46q-37 0 -73 -19q-106 -68 -197 -67q-82 0 -170 57q-78 109 -78 264q0 166 64 260q43 63 198 107 q127 35 160 53q76 45 76 135q0 78 -47 132.5t-125 68.5q-154 -10 -184 -16q-119 -23 -236 -107q-197 -139 -313 -385q-25 -72 -25 -197z" />
<glyph unicode="&#xc8;" />
<glyph unicode="&#xc9;" horiz-adv-x="1157" d="M378 1757q0 102 84 188q113 115 242 115q61 0 99 -39t38 -100q0 -106 -110 -215q-98 -96 -203 -96q-66 0 -108 40.5t-42 106.5zM39 752q0 475 106 620q80 109 383 109q223 0 400 -74q66 -84 65 -160q0 -61 -47 -98q-14 -10 -41 -10q-31 0 -103.5 13t-109.5 13 q-78 0 -135 -35q-66 -41 -65 -114q0 -66 45 -90q41 -31 186 -39q160 -10 192 -21q51 -33 52 -116q0 -63 -45 -91q-33 -6 -86 -6h-54q-74 2 -55 2q-154 0 -197 -67q10 -232 435 -232h36q78 -23 78 -139q0 -115 -100 -162q-111 -51 -358 -51q-403 0 -504 180q-78 140 -78 568z " />
<glyph unicode="&#xca;" />
<glyph unicode="&#xcb;" />
<glyph unicode="&#xcc;" />
<glyph unicode="&#xcd;" />
<glyph unicode="&#xce;" />
<glyph unicode="&#xcf;" />
<glyph unicode="&#xd0;" />
<glyph unicode="&#xd1;" horiz-adv-x="1241" d="M10 954q0 -315 41 -839q10 -53 86 -80q57 -23 123 -23q162 0 197 97q16 16 16 53q0 57 -39 177t-39 175q0 45 31 49q59 -4 131 -147q43 -88 129 -266q16 -61 88 -97q61 -31 133 -30q131 0 148 77q35 162 35 701q0 471 -35 592q-37 66 -195 65q-137 0 -160 -55 q-16 -18 -16 -66q0 -76 39 -223t39 -223q0 -66 -37 -72q-4 -1 -9 -1q-58 0 -104 128q-14 37 -73 277q-41 160 -80 198q-68 66 -215 66q-195 0 -209 -101q-25 -170 -25 -432z" />
<glyph unicode="&#xd2;" />
<glyph unicode="&#xd3;" />
<glyph unicode="&#xd4;" />
<glyph unicode="&#xd5;" />
<glyph unicode="&#xd6;" horiz-adv-x="1202" d="M-72 1825q0 133 113 178q45 18 92 19q131 0 182 -129q16 -41 17 -86q0 -102 -95 -160q-49 -31 -102 -31q-88 0 -147.5 60.5t-59.5 148.5zM440 1819q0 145 129 184q35 10 80 11q131 0 178 -127q10 -45 10 -82q0 -111 -88 -166q-47 -29 -102 -29q-88 0 -147.5 60.5 t-59.5 148.5zM37 625q0 -172 46 -296t159 -251q127 -70 280 -70q143 0 334 64q139 119 182 264q33 114 34 359q0 27 -1 57q-49 362 -184 532q-166 203 -504 203q-139 -61 -227 -277q-45 -111 -107 -376q-12 -117 -12 -209zM412 705q2 55 32 145q37 111 74 115q9 1 18 0 q68 0 128 -41q68 -47 67 -123q0 -111 -29 -164q-37 -72 -137 -72q-154 0 -154 126q1 7 1 14z" />
<glyph unicode="&#xd8;" />
<glyph unicode="&#xd9;" />
<glyph unicode="&#xda;" />
<glyph unicode="&#xdb;" />
<glyph unicode="&#xdc;" horiz-adv-x="1239" d="M-156 1829q0 133 113 178q45 18 92 19q131 0 182 -129q16 -41 17 -86q0 -102 -95 -160q-49 -31 -102 -31q-88 0 -147.5 60.5t-59.5 148.5zM356 1823q0 145 129 184q35 10 80 11q131 0 178 -127q10 -45 10 -82q0 -111 -88 -166q-47 -29 -102 -29q-88 0 -147.5 60.5 t-59.5 148.5zM0 905q0 203 41 402q20 94 92 139t166 45q72 0 135 -27q82 -35 82 -98q0 -6 -2 -23q-12 -133 -35 -292q-27 -186 -26 -279q0 -188 110 -192h4q106 0 107 204q0 102 -27 285q-31 211 -35 268v12q0 67 64 105q57 33 137 33q88 0 156 -41q76 -45 94 -127 q33 -152 33 -352q0 -211 -47 -465q-61 -342 -170 -406q-51 -94 -324 -94q-291 0 -330 100q-125 106 -182 375q-43 197 -43 428z" />
<glyph unicode="&#xdd;" />
<glyph unicode="&#xde;" />
<glyph unicode="&#xdf;" />
<glyph unicode="&#xe0;" horiz-adv-x="1214" d="M211 1790q0 -113 108 -217q96 -94 205 -95q66 0 108 41t42 107q0 92 -84 188q-121 113 -242 113q-59 0 -98 -39t-39 -98zM23 467q0 147 88 229q119 111 272 111q96 0 270 -64q78 0 78 88q0 57 -37 107.5t-90 69.5q-68 23 -135 22q-66 0 -156 -41t-116 -41q-41 0 -88 31 q-51 72 -52 137q0 68 52 117q125 123 415 123q289 0 406 -139q84 -49 119 -314q23 -166 22 -358q0 -319 -53 -441q-18 -98 -156 -98q-109 0 -123 64q-98 -43 -217 -43q-252 0 -397 131q-102 133 -102 309zM350 430q0 -49 29 -68q16 -10 72 -16q16 -2 31 -2q40 0 73 12 q57 20 57 76q0 90 -145 111q-11 2 -20 1q-39 0 -65 -26q-32 -33 -32 -88z" />
<glyph unicode="&#xe1;" horiz-adv-x="1214" d="M374 1626q0 102 84 188q113 115 242 115q61 0 99 -39t38 -100q0 -106 -110 -215q-98 -96 -203 -96q-66 0 -108 40.5t-42 106.5zM23 467q0 147 88 229q119 111 272 111q96 0 270 -64q78 0 78 88q0 57 -37 107.5t-90 69.5q-68 23 -135 22q-66 0 -156 -41t-116 -41 q-41 0 -88 31q-51 72 -52 137q0 68 52 117q125 123 415 123q289 0 406 -139q84 -49 119 -314q23 -166 22 -358q0 -319 -53 -441q-18 -98 -156 -98q-109 0 -123 64q-98 -43 -217 -43q-252 0 -397 131q-102 133 -102 309zM350 430q0 -49 29 -68q16 -10 72 -16q16 -2 31 -2 q40 0 73 12q57 20 57 76q0 90 -145 111q-11 2 -20 1q-39 0 -65 -26q-32 -33 -32 -88z" />
<glyph unicode="&#xe2;" horiz-adv-x="1214" d="M23 467q0 147 88 229q119 111 272 111q96 0 270 -64q78 0 78 88q0 57 -37 107.5t-90 69.5q-68 23 -135 22q-66 0 -156 -41t-116 -41q-41 0 -88 31q-51 72 -52 137q0 68 52 117q125 123 415 123q289 0 406 -139q84 -49 119 -314q23 -166 22 -358q0 -319 -53 -441 q-18 -98 -156 -98q-109 0 -123 64q-98 -43 -217 -43q-252 0 -397 131q-102 133 -102 309zM350 430q0 -49 29 -68q16 -10 72 -16q16 -2 31 -2q40 0 73 12q57 20 57 76q0 90 -145 111q-11 2 -20 1q-39 0 -65 -26q-32 -33 -32 -88z" />
<glyph unicode="&#xe3;" />
<glyph unicode="&#xe4;" horiz-adv-x="1214" d="M70 1693q0 133 113 178q45 18 92 19q131 0 182 -129q16 -41 17 -86q0 -102 -95 -160q-49 -31 -102 -31q-88 0 -147.5 60.5t-59.5 148.5zM582 1687q0 145 129 184q35 10 80 11q131 0 178 -127q10 -45 10 -82q0 -111 -88 -166q-47 -29 -102 -29q-88 0 -147.5 60.5 t-59.5 148.5zM23 467q0 147 88 229q119 111 272 111q96 0 270 -64q78 0 78 88q0 57 -37 107.5t-90 69.5q-68 23 -135 22q-66 0 -156 -41t-116 -41q-41 0 -88 31q-51 72 -52 137q0 68 52 117q125 123 415 123q289 0 406 -139q84 -49 119 -314q23 -166 22 -358 q0 -319 -53 -441q-18 -98 -156 -98q-109 0 -123 64q-98 -43 -217 -43q-252 0 -397 131q-102 133 -102 309zM350 430q0 -49 29 -68q16 -10 72 -16q16 -2 31 -2q40 0 73 12q57 20 57 76q0 90 -145 111q-11 2 -20 1q-39 0 -65 -26q-32 -33 -32 -88z" />
<glyph unicode="&#xe5;" />
<glyph unicode="&#xe6;" horiz-adv-x="1968" d="M20 739v209q0 27 99 43q78 12 131 13q14 0 14 -15q0 -16 -10 -55t-10 -60q0 -88 49 -88q20 0 42.5 22.5t29.5 45.5q4 47 22 139q53 135 180 197q150 72 305 72q258 0 412 -185q41 -12 94 -12q25 0 72 3t72 3q61 0 102 -14q147 -51 193 -195q27 -84 26 -133q0 -25 -10 -59 q-18 -59 -10 -72l2 -2q23 -66 16 -160q-8 -145 -80 -276q-88 -160 -219 -160q-20 0 -62 9t-65 9q-14 0 -43 -2t-43 -2q-133 0 -129 80q2 43 0 45q-39 16 -127 17.5t-133 21.5q-2 2 -4 2q-16 -35 -35 -78q-31 -72 -82 -77q-29 -10 -61 -11q-27 0 -166 33q-43 2 -125 10 q-111 14 -111 156q0 37 15.5 116t13.5 120q-14 0 -54 -15.5t-57 -11.5q-23 4 -22 18q0 14 76 82l2 4q-23 -4 -49 -4q-238 0 -261 217zM49 801q0 -246 205 -246q18 0 53 5t53 5q25 0 19 -20q-8 -27 -37 -53q-25 -18 -49 -39q74 27 94 26q27 0 29 -26q2 -43 -13 -119 q-16 -82 -16 -119q0 -35 10 -65q66 -2 181 16q6 2 12 0v24v78q2 66 18 68q14 2 17 -14q-2 14 -4 -150q115 -6 262 -29q25 68 53 68q8 0 16 -4q43 -20 131 -21.5t129 -17.5q25 -10 21 -55q82 2 104 -7q43 -8 68 -30q2 39 45 82q4 4 10 4q16 0 17 -17l-27 -22q49 2 133 -72 q6 -4 6 -10q90 31 154 160q49 102 65 221q-39 -14 -82 -14q-49 0 -102 20q-74 20 -74 102q0 96 123 97q45 0 78 -25q6 -4 6 -12q0 -16 -16 -17q-4 0 -8 5q-37 29 -125 8q-27 -6 -27 -58q0 -20 6 -39l2 -2q6 -20 45 -30q47 -18 90 -19q33 0 64 11q2 2 2 6l2 2q4 12 18 10 q0 76 -14 117q-14 25 8 96q6 20 6 49q0 33 -22 125q-31 82 -99.5 133t-156.5 53q-66 -4 -197 -4q-59 4 -71 19q-145 176 -392 176q-150 0 -292 -68q-70 -33 -119 -101.5t-58 -143.5q-4 -37 -8 -72q-10 -41 -51 -72q0 -10 5 -28.5t5 -28.5q0 -14 -16 -15q-10 0 -23 58 q-12 -4 -22 -4q-14 0 -27 6q-16 -29 -47 -86q-4 -10 -12 -10q-27 0 -14 22q18 41 51 94q-16 18 -25 45v-2q-29 -18 -92 -41q-14 -2 -18 13q-2 12 24 24q20 8 39 17q35 18 41 18q-6 47 14 117q-102 -2 -176 -33q2 -23 0 -68q-2 -46 -2 -71zM412 119q33 -41 186 -41h2 q-6 20 -10 59q-33 -16 -88 -16q-43 0 -90 -2zM477 850q2 12 12 12q6 0 11 -4l4 4l4 2q12 14 43 25.5t36 16.5t11 5q16 0 16 -14t-32 -29q-43 -18 -45 -20q88 -12 81 -12q16 0 17 -17q0 -14 -17 -14q-8 0 -73 10q45 -41 45 -51q0 -16 -17 -16q-8 0 -12 6l-76 75q-10 7 -8 21z M621 139q2 -33 14 -59h4q16 0 16 -14q70 -16 117 -17q23 0 39 4l2 2q39 8 59 60l-2 2q-41 8 -124.5 11t-124.5 11zM739 569q0 12 3 25.5t18 11.5q16 -4 12 -18q-4 -25 6 -39q23 -6 47 -6q63 0 116.5 34.5t70.5 94.5q10 35 10 76q0 53 -18 135q-18 92 -45 126.5t-82 34.5 q-27 0 -66 -10h-2q-8 0 -23.5 -3t-23.5 -3q-14 0 -14 16q0 10 36 19q14 2 23 2q39 10 72 10q115 0 153 -176q23 -100 23 -151q0 -131 -94 -195q-61 -41 -136 -41q-29 0 -57 6l-2 2q-27 12 -27 49zM1233 82q12 -41 156 -35q-16 20 -58 29l-4 2q-16 8 -94 4zM1436 47 q18 0 59 -8t64 -6q-74 66 -121 59q-4 -20 -2 -39v-6z" />
<glyph unicode="&#xe7;" />
<glyph unicode="&#xe8;" />
<glyph unicode="&#xe9;" />
<glyph unicode="&#xea;" />
<glyph unicode="&#xeb;" />
<glyph unicode="&#xec;" />
<glyph unicode="&#xed;" />
<glyph unicode="&#xee;" />
<glyph unicode="&#xef;" />
<glyph unicode="&#xf0;" />
<glyph unicode="&#xf1;" />
<glyph unicode="&#xf2;" />
<glyph unicode="&#xf3;" />
<glyph unicode="&#xf4;" />
<glyph unicode="&#xf5;" />
<glyph unicode="&#xf6;" />
<glyph unicode="&#xf7;" horiz-adv-x="1198" d="M8 795q0 139 78 178q135 27 414 26q330 0 499 -26q92 -14 93 -154q0 -113 -72 -172q-219 -25 -569 -24q-246 0 -379 16q-64 33 -64 156zM297 395q0 152 129 203q47 18 98 18q133 0 213 -145q23 -41 23 -94q0 -119 -111 -187q-53 -33 -117 -32q-98 0 -166.5 69.5 t-68.5 167.5zM309 1233q0 152 129 203q47 18 99 18q133 0 213 -145q23 -41 22 -95q0 -119 -110 -186q-53 -33 -117 -33q-98 0 -167 70t-69 168z" />
<glyph unicode="&#xf8;" horiz-adv-x="2002" d="M18 537q0 393 431 518q-2 6 -3 14q0 16 46 111q41 84 75 84q63 0 190.5 7t190.5 7q178 0 293 -41q49 -18 49 -82q0 -51 -22 -90q94 -35 198 -96q41 -25 90 -92q33 45 101 133q59 78 137 77q10 0 16 -10q35 -84 66 -284q29 -184 29 -295q0 -33 -2 -95.5t-2 -95.5 q0 -14 -15.5 -16t-30.5 -2q-20 -2 -32 -2q-29 0 -119 52t-111 52q-39 0 -98 -45q-29 -25 -88 -70q-47 -35 -117 -59q18 -2 19 -63q0 -27 -21 -37q-223 -117 -473 -117q-338 0 -352 59q-2 8 -2 23q0 35 2 43q-156 23 -221 53q-92 43 -168 154q-14 8 -33 35q-23 86 -23 170z M49 537q0 -80 21 -160q23 -16 41 -43h2q16 0 49 -6t49 -6t45 10t33 10q16 0 16 -16q0 -18 -41 -29q-31 -8 -55 -8q-33 0 -68 8q16 -16 43 -45q51 -55 199 -84q115 -23 223 -23q74 0 185 13q2 2 4 2h4q121 16 219 39q18 4 133 18q162 20 285 121q102 84 155 84 q31 0 121 -52.5t113 -52.5q8 0 45 5q0 29 2 88t2 88q0 18 -2 41q-2 -2 -6 -2h-129q-16 0 -17 16q0 16 17 16h129q4 -2 6 -2q-6 98 -25 211q0 -2 -63 -14q-35 -8 -51 -8q-31 0 -31 18q0 10 35 17q25 2 47 6q33 6 49 6q6 0 10 -4q-25 147 -59 256q-61 -8 -142 -113.5 t-88 -105.5l-46 50q-46 50 -58 56q-211 121 -344 121q-31 0 -93.5 5t-92.5 5q-2 0 -58 -4q-94 -4 -336 -25q-477 -108 -477 -507zM238 649q0 78 67 78q74 0 74 -78q0 -92 -53 -92h-31q-23 0 -41 37q-16 30 -16 55zM270 647q0 -39 31 -59h23q25 0 24 61q0 47 -43 47 q-6 0 -12 -2q-23 -14 -23 -47zM449 897q0 16 16 16q4 0 10 -4q143 -117 143 -393q0 -160 -59 -215q-4 -4 -10 -4q-16 0 -17 16q0 4 7 11q49 61 49 192q0 129 -23 201q-29 86 -110 168q-6 6 -6 12zM477 1065q76 18 150 25q-4 6 -4 30q0 72 45 113q-55 -2 -101 -2 q-23 -10 -59 -86q-31 -63 -31 -72v-8zM492 82q0 -10 2 -16q35 -16 90 -25v14q0 33 8 58q-49 2 -98 8q0 -8 -2 -23v-16zM616 37q55 -6 154 -6q-4 4 -4 10q0 47 8 80q-76 -6 -151 -8q-3 -27 -7 -76zM653 1092q43 0 127 4v2v37q0 76 33 108l-94 -6q0 -6 -8 -10q-37 -20 -49 -58 q-5 -18 -9 -77zM735 793q0 16 15 16q68 0 199.5 4t199.5 4q117 0 117 -18q0 -12 -17 -15q18 2 -100 2q-68 0 -200 -4t-199 -4q-15 1 -15 15zM793 520q0 12 15 15.5t308 25.5q25 2 113 12q76 8 110 9q16 0 17 -17q0 -12 -15 -14q-41 -8 -309 -27q-25 -2 -112 -12 q-57 -6 -109 -6q-18 0 -18 14zM795 31l28 2q45 2 131 8q-27 35 -26 80q0 16 4 24q-59 -12 -123 -20q-6 -45 -14 -94zM811 1096q121 8 107 8h34q-10 4 -10 14q0 23 20.5 66t36.5 61q-25 2 -51 2q-39 0 -86 -2q0 -8 -8 -12q-33 -16 -41 -62q0 -36 -2 -75zM954 150q4 -2 4 -27 t15 -49l14 -27q109 20 291 98v5q0 6 -4 38q-8 4 -8 15q0 6 4 8q-61 -16 -127 -27q0 -25 12 -45l12 -20q0 -16 -14 -17q-35 0 -41 80q-29 -4 -84 -14h-4q-33 -10 -70 -18zM961 1102q109 -4 139 -6q80 -6 137 -23q23 53 23 78q0 41 -33 57q-12 6 -68 19q-18 -39 -43 -119 q-4 -12 -16 -12q-14 0 -15 18q0 18 17 57q12 27 26 62q-39 8 -84 10q-2 -4 -8 -10q-27 -16 -49 -72.5t-26 -58.5zM1714 676q0 16 17 16h110q14 0 14 -16q0 -14 -14 -14h-110q-17 0 -17 14z" />
<glyph unicode="&#xf9;" />
<glyph unicode="&#xfa;" />
<glyph unicode="&#xfb;" />
<glyph unicode="&#xfc;" />
<glyph unicode="&#xfd;" horiz-adv-x="1177" d="M108 1552q0 102 84 188q113 115 242 115q61 0 99 -39t38 -100q0 -106 -110 -215q-98 -96 -203 -96q-66 0 -108 40.5t-42 106.5zM4 1159q0 63 100 98q76 25 154 25q158 0 168 -76q16 -113 33 -198q23 -119 92 -134q74 0 98 125q10 68 35 203q20 72 180 72q80 0 142 -29 q80 -35 80 -100q0 -105 -70 -281q-51 -129 -170 -360q-70 -135 -211 -404q-172 -312 -316 -311h-8q-133 6 -202 76q-45 45 -46 84q0 94 177 354q125 184 125 207q0 8 -9 12q-184 68 -280 299q-72 172 -72 338z" />
<glyph unicode="&#xfe;" />
<glyph unicode="&#xff;" />
<glyph unicode="&#x152;" />
<glyph unicode="&#x153;" />
<glyph unicode="&#x178;" />
<glyph unicode="&#x2c6;" />
<glyph unicode="&#x2da;" />
<glyph unicode="&#x2dc;" />
<glyph unicode="&#x2013;" />
<glyph unicode="&#x2014;" />
<glyph unicode="&#x2018;" />
<glyph unicode="&#x2019;" />
<glyph unicode="&#x201a;" />
<glyph unicode="&#x201c;" />
<glyph unicode="&#x201d;" />
<glyph unicode="&#x201e;" />
<glyph unicode="&#x2022;" horiz-adv-x="876" d="M145 856q0 186 162 252q61 25 121 25q164 0 268 -181q27 -57 27 -118q0 -145 -139 -232q-70 -43 -146 -43q-166 0 -252 143q-41 68 -41 154z" />
<glyph unicode="&#x2026;" horiz-adv-x="976" d="M4 137q0 78 68 105q27 10 49 10q6 0 4 0q66 -2 108 -76q10 -23 11 -49q0 -59 -58 -96q-29 -18 -59 -19q-53 0 -88 36t-35 89zM307 133q0 78 68 105q27 10 49 10q6 0 4 0q66 -2 109 -76q10 -23 10 -49q0 -59 -58 -96q-29 -18 -59 -19q-53 0 -88 36t-35 89zM604 133 q0 78 68 105q27 10 49 10q6 0 4 0q66 -2 109 -76q10 -23 10 -49q0 -59 -58 -96q-29 -18 -59 -19q-53 0 -88 36t-35 89z" />
<glyph unicode="&#x2039;" />
<glyph unicode="&#x203a;" />
<glyph unicode="&#x2122;" horiz-adv-x="1257" d="M-4 1364q0 84 35 104q104 18 225 19q121 0 256 -19q37 -16 37 -100q0 -78 -31 -92q-18 -25 -49 -25q-16 0 -46 9.5t-42 9.5q-27 0 -27 -39q0 -66 16.5 -197t16.5 -196q0 -55 -12 -66q-39 -31 -113 -31q-72 0 -90 41q-10 10 -10 60q0 66 19.5 194.5t19.5 192.5q0 20 -4 22 q-6 16 -25 17q-10 -2 -66 -15q-110 -24 -110 111zM555 1135q0 213 23 286q4 63 94 64q96 0 98 -70q18 -47 21 -47q14 -25 38 -27q35 2 60 78q4 57 92 58q80 0 92 -62q25 -115 25 -330q0 -193 -25 -288q-12 -49 -88 -49q-61 0 -82 43q-6 12 -6 45t7 96t7 96q0 49 -18 51 q-2 0 -18.5 -40t-49.5 -40q-29 0 -42 40t-19 40q-25 -6 -25 -61q0 -35 10.5 -102.5t10.5 -102.5q0 -16 -2 -22q-25 -43 -90 -43q-66 0 -84 38q-29 79 -29 349z" />
<glyph unicode="&#xe000;" horiz-adv-x="1280" d="M0 1280h1280v-1280h-1280v1280z" />
<glyph unicode="&#xfb01;" horiz-adv-x="1806" d="M1208 1276q14 219 254 219h8q94 -2 139.5 -42t67.5 -132q8 -33 8 -64q0 -109 -72.5 -170t-183.5 -61q-98 0 -162 76q-59 69 -59 157q-1 8 0 17zM1212 502q0 313 41 368q37 68 181 68q156 0 198 -76q33 -59 33 -407q0 -307 -27 -394q-29 -68 -198 -67q-156 0 -183 61 q-45 103 -45 447zM6 877q0 152 76 167q16 6 39 7q27 0 88 -13.5t92 -13.5q45 0 82 20q17 10 17 49q0 16 -3 37q-15 102 -14 141q0 226 285 226q106 0 202 -43q49 -51 52 -55q18 -27 18 -58q0 -33 -22 -100q-61 -33 -101 -33q-10 0 -29.5 4.5t-29.5 4.5q-70 0 -70 -78 q0 -53 31 -88q12 -22 68 -22q33 0 81 7q57 8 98 8q60 0 83 -18q45 -27 45 -133q0 -47 -13 -100q-14 -74 -43 -86q-27 -12 -81 -12q-38 0 -91 5q-38 5 -64 5q-53 0 -63 -19q-18 -18 -18 -98q0 -76 15.5 -226.5t15.5 -226.5q0 -49 -7 -78q-27 -55 -176 -55q-182 0 -192 76 q-16 51 -17 137q0 66 13.5 196t13.5 195q0 113 -78 113q-31 0 -89 -12.5t-89 -12.5q-29 0 -49 11q-76 20 -76 172z" />
<glyph unicode="&#xfb02;" horiz-adv-x="2029" d="M1223 696q0 283 36 674q37 102 213 103q170 0 211 -91q18 -59 19 -147q0 -100 -35 -297t-35 -295q0 -45 8 -70q-2 -31 -2 -49q0 -134 157 -134q11 0 24 1q123 -4 122 -160q0 -123 -83 -165q-121 -61 -244 -62q-188 0 -303 152q-88 116 -88 540zM6 877q0 152 76 167 q16 6 39 7q27 0 88 -13.5t92 -13.5q45 0 82 20q17 10 17 49q0 16 -3 37q-15 102 -14 141q0 226 285 226q106 0 202 -43q49 -51 52 -55q18 -27 18 -58q0 -33 -22 -100q-61 -33 -101 -33q-10 0 -29.5 4.5t-29.5 4.5q-70 0 -70 -78q0 -53 31 -88q12 -22 68 -22q33 0 81 7 q57 8 98 8q60 0 83 -18q45 -27 45 -133q0 -47 -13 -100q-14 -74 -43 -86q-27 -12 -81 -12q-38 0 -91 5q-38 5 -64 5q-53 0 -63 -19q-18 -18 -18 -98q0 -76 15.5 -226.5t15.5 -226.5q0 -49 -7 -78q-27 -55 -176 -55q-182 0 -192 76q-16 51 -17 137q0 66 13.5 196t13.5 195 q0 113 -78 113q-31 0 -89 -12.5t-89 -12.5q-29 0 -49 11q-76 20 -76 172z" />
<glyph unicode="&#xfb03;" horiz-adv-x="3002" d="M2404 1276q14 219 254 219h8q94 -2 139.5 -42t67.5 -132q8 -33 8 -64q0 -109 -72.5 -170t-183.5 -61q-98 0 -162 76q-59 69 -59 157q-1 8 0 17zM2408 502q0 313 41 368q37 68 181 68q156 0 198 -76q33 -59 33 -407q0 -307 -27 -394q-29 -68 -198 -67q-156 0 -183 61 q-45 103 -45 447zM1202 877q0 152 76 167q16 6 39 7q27 0 88 -13.5t92 -13.5q45 0 82 20q17 10 17 49q0 16 -3 37q-15 102 -14 141q0 226 285 226q106 0 202 -43q49 -51 52 -55q18 -27 18 -58q0 -33 -22 -100q-61 -33 -101 -33q-10 0 -29.5 4.5t-29.5 4.5q-70 0 -70 -78 q0 -53 31 -88q12 -22 68 -22q33 0 81 7q57 8 98 8q60 0 83 -18q45 -27 45 -133q0 -47 -13 -100q-14 -74 -43 -86q-27 -12 -81 -12q-38 0 -91 5q-38 5 -64 5q-53 0 -63 -19q-18 -18 -18 -98q0 -76 15.5 -226.5t15.5 -226.5q0 -49 -7 -78q-27 -55 -176 -55q-182 0 -192 76 q-16 51 -17 137q0 66 13.5 196t13.5 195q0 113 -78 113q-31 0 -89 -12.5t-89 -12.5q-29 0 -49 11q-76 20 -76 172zM6 877q0 152 76 167q16 6 39 7q27 0 88 -13.5t92 -13.5q45 0 82 20q17 10 17 49q0 16 -3 37q-15 102 -14 141q0 226 285 226q106 0 202 -43q49 -51 52 -55 q18 -27 18 -58q0 -33 -22 -100q-61 -33 -101 -33q-10 0 -29.5 4.5t-29.5 4.5q-70 0 -70 -78q0 -53 31 -88q12 -22 68 -22q33 0 81 7q57 8 98 8q60 0 83 -18q45 -27 45 -133q0 -47 -13 -100q-14 -74 -43 -86q-27 -12 -81 -12q-38 0 -91 5q-38 5 -64 5q-53 0 -63 -19 q-18 -18 -18 -98q0 -76 15.5 -226.5t15.5 -226.5q0 -49 -7 -78q-27 -55 -176 -55q-182 0 -192 76q-16 51 -17 137q0 66 13.5 196t13.5 195q0 113 -78 113q-31 0 -89 -12.5t-89 -12.5q-29 0 -49 11q-76 20 -76 172z" />
<glyph unicode="&#xfb04;" horiz-adv-x="3225" d="M2419 696q0 283 36 674q37 102 213 103q170 0 211 -91q18 -59 19 -147q0 -100 -35 -297t-35 -295q0 -45 8 -70q-2 -31 -2 -49q0 -134 157 -134q11 0 24 1q123 -4 122 -160q0 -123 -83 -165q-121 -61 -244 -62q-188 0 -303 152q-88 116 -88 540zM1202 877q0 152 76 167 q16 6 39 7q27 0 88 -13.5t92 -13.5q45 0 82 20q17 10 17 49q0 16 -3 37q-15 102 -14 141q0 226 285 226q106 0 202 -43q49 -51 52 -55q18 -27 18 -58q0 -33 -22 -100q-61 -33 -101 -33q-10 0 -29.5 4.5t-29.5 4.5q-70 0 -70 -78q0 -53 31 -88q12 -22 68 -22q33 0 81 7 q57 8 98 8q60 0 83 -18q45 -27 45 -133q0 -47 -13 -100q-14 -74 -43 -86q-27 -12 -81 -12q-38 0 -91 5q-38 5 -64 5q-53 0 -63 -19q-18 -18 -18 -98q0 -76 15.5 -226.5t15.5 -226.5q0 -49 -7 -78q-27 -55 -176 -55q-182 0 -192 76q-16 51 -17 137q0 66 13.5 196t13.5 195 q0 113 -78 113q-31 0 -89 -12.5t-89 -12.5q-29 0 -49 11q-76 20 -76 172zM6 877q0 152 76 167q16 6 39 7q27 0 88 -13.5t92 -13.5q45 0 82 20q17 10 17 49q0 16 -3 37q-15 102 -14 141q0 226 285 226q106 0 202 -43q49 -51 52 -55q18 -27 18 -58q0 -33 -22 -100 q-61 -33 -101 -33q-10 0 -29.5 4.5t-29.5 4.5q-70 0 -70 -78q0 -53 31 -88q12 -22 68 -22q33 0 81 7q57 8 98 8q60 0 83 -18q45 -27 45 -133q0 -47 -13 -100q-14 -74 -43 -86q-27 -12 -81 -12q-38 0 -91 5q-38 5 -64 5q-53 0 -63 -19q-18 -18 -18 -98q0 -76 15.5 -226.5 t15.5 -226.5q0 -49 -7 -78q-27 -55 -176 -55q-182 0 -192 76q-16 51 -17 137q0 66 13.5 196t13.5 195q0 113 -78 113q-31 0 -89 -12.5t-89 -12.5q-29 0 -49 11q-76 20 -76 172z" />
</font>
</defs>
</svg>
